<?xml version="1.0" encoding="UTF-8" standalone="no"?>
<!-- Created with Inkscape (http://www.inkscape.org/) -->

<svg
   version="1.1"
   id="svg2"
   width="3333.5732"
   height="2133.3333"
   viewBox="0 0 3333.5732 2133.3333"
   sodipodi:docname="vecteezy_cute-abstract-modern-background_.eps"
   xmlns:inkscape="http://www.inkscape.org/namespaces/inkscape"
   xmlns:sodipodi="http://sodipodi.sourceforge.net/DTD/sodipodi-0.dtd"
   xmlns="http://www.w3.org/2000/svg"
   xmlns:svg="http://www.w3.org/2000/svg">
  <defs
     id="defs6">
    <clipPath
       clipPathUnits="userSpaceOnUse"
       id="clipPath22">
      <path
         d="M 0,0 H 25000 V 16000 H 0 Z"
         id="path20" />
    </clipPath>
    <clipPath
       clipPathUnits="userSpaceOnUse"
       id="clipPath106">
      <path
         d="M 0,0 H 25000 V 16000 H 0 Z"
         id="path104" />
    </clipPath>
    <clipPath
       clipPathUnits="userSpaceOnUse"
       id="clipPath112">
      <path
         d="m 25973.4,-2081.8 c -1420.1,-1420.1 -3722.5,-1420.1 -5142.6,0 -1420,1420.101 -1420,3722.5 0,5142.6 1420.1,1420 3722.5,1420 5142.6,0 1420.1,-1420.1 1420.1,-3722.499 0,-5142.6 z"
         id="path110" />
    </clipPath>
    <clipPath
       clipPathUnits="userSpaceOnUse"
       id="clipPath196">
      <path
         d="M 0,0 H 25000 V 16000 H 0 Z"
         id="path194" />
    </clipPath>
  </defs>
  <sodipodi:namedview
     id="namedview4"
     pagecolor="#ffffff"
     bordercolor="#000000"
     borderopacity="0.25"
     inkscape:showpageshadow="2"
     inkscape:pageopacity="0.0"
     inkscape:pagecheckerboard="0"
     inkscape:deskcolor="#d1d1d1"
     showgrid="false" />
  <g
     id="g10"
     inkscape:groupmode="layer"
     inkscape:label="Page 1"
     transform="matrix(1.3333333,0,0,-1.3333333,0,2133.3333)">
    <g
       id="g12"
       transform="scale(0.1)">
      <path
         d="M 25001.8,0 H 1.83594 V 16000 H 25001.8 V 0"
         style="fill:#fff9ef;fill-opacity:1;fill-rule:nonzero;stroke:none"
         id="path14" />
      <g
         id="g16">
        <g
           id="g18"
           clip-path="url(#clipPath22)">
          <path
             d="m 2811.83,7312.1 c 0,-972.97 -788.75,-1761.7 -1761.73,-1761.7 -972.975,0 -1761.729,788.73 -1761.729,1761.7 0,972.98 788.754,1761.74 1761.729,1761.74 972.98,0 1761.73,-788.76 1761.73,-1761.74"
             style="fill:#faf2e9;fill-opacity:1;fill-rule:nonzero;stroke:none"
             id="path24" />
          <path
             d="m 23377.4,10521 c 0,-481.5 -390.4,-871.9 -871.9,-871.9 -481.5,0 -871.9,390.4 -871.9,871.9 0,481.5 390.4,871.9 871.9,871.9 481.5,0 871.9,-390.4 871.9,-871.9"
             style="fill:#faf2e9;fill-opacity:1;fill-rule:nonzero;stroke:none"
             id="path26" />
          <path
             d="m 24460,9100.38 c 0,-272.51 -220.9,-493.42 -493.5,-493.42 -272.5,0 -493.4,220.91 -493.4,493.42 0,272.5 220.9,493.41 493.4,493.41 272.6,0 493.5,-220.91 493.5,-493.41 z"
             style="fill:none;stroke:#faf2e9;stroke-width:125.314;stroke-linecap:butt;stroke-linejoin:miter;stroke-miterlimit:10;stroke-dasharray:none;stroke-opacity:1"
             id="path28" />
          <path
             d="m 20624.6,13192.7 c 0,-115.5 -93.6,-209.1 -209.1,-209.1 -115.5,0 -209.1,93.6 -209.1,209.1 0,115.5 93.6,209.1 209.1,209.1 115.5,0 209.1,-93.6 209.1,-209.1 z"
             style="fill:none;stroke:#faf2e9;stroke-width:125.314;stroke-linecap:butt;stroke-linejoin:miter;stroke-miterlimit:10;stroke-dasharray:none;stroke-opacity:1"
             id="path30" />
          <path
             d="m 9276.36,3862.6 c 0,-443.1 -359.22,-802.4 -802.34,-802.4 -443.12,0 -802.33,359.3 -802.33,802.4 0,443.1 359.21,802.3 802.33,802.3 443.12,0 802.34,-359.2 802.34,-802.3"
             style="fill:#faf2e9;fill-opacity:1;fill-rule:nonzero;stroke:none"
             id="path32" />
          <path
             d="m 10709.7,13321.7 c 0,-272.5 -220.9,-493.4 -493.4,-493.4 -272.54,0 -493.45,220.9 -493.45,493.4 0,272.5 220.91,493.4 493.45,493.4 272.5,0 493.4,-220.9 493.4,-493.4"
             style="fill:#faf2e9;fill-opacity:1;fill-rule:nonzero;stroke:none"
             id="path34" />
          <path
             d="m 3777.58,9854.85 c 0,-317.16 -257.11,-574.26 -574.27,-574.26 -317.16,0 -574.27,257.1 -574.27,574.26 0,317.15 257.11,574.25 574.27,574.25 317.16,0 574.27,-257.1 574.27,-574.25 z"
             style="fill:none;stroke:#faf2e9;stroke-width:150;stroke-linecap:butt;stroke-linejoin:miter;stroke-miterlimit:10;stroke-dasharray:none;stroke-opacity:1"
             id="path36" />
          <path
             d="m 3243.61,11718.2 c 364.5,614.8 598.74,1354.8 1189.43,1757.2 648.31,441.8 1511.46,332.5 2274,516.9 581.63,140.6 1129.41,475.5 1452.65,979 323.24,503.6 392.68,1181.5 107.74,1707.7 -217.05,400.8 -606.51,678.4 -1006.29,897.4 -1880.59,1030 -4298.54,1000.2 -6153.19,-75.8 -1663.552,-965.1 -2700.43,-2662.3 -3090.98,-4516.3 -344.31,-1634.4 919.73,-3065.39 2649.128,-2968.2 1079.492,60.7 2039.732,795 2577.512,1702.1"
             style="fill:#faf2e9;fill-opacity:1;fill-rule:nonzero;stroke:none"
             id="path38" />
          <path
             d="M 21223.8,4082.4 C 20061.1,3664.9 18728,4067 17559.9,3664.8 16379.4,3258.4 15577.3,2026.7 15545.6,778.602 15514,-469.5 16186,-1681.2 17179,-2438 c 993,-756.8 2272.2,-1083.9 3520.3,-1052.9 1248.1,31 2469.3,400.6 3603.1,923.3 956.7,441 1888.1,1015.8 2500.9,1872.702 861.3,1204.398 973,2794.998 801.8,4265.698 -113,971.4 -356.3,1972.3 -995.2,2712.71 -707.1,819.53 -2055,1288.05 -2834.7,360.65 C 22973.5,5690.6 22490.9,4537.4 21223.8,4082.4"
             style="fill:#faf2e9;fill-opacity:1;fill-rule:nonzero;stroke:none"
             id="path40" />
          <path
             d="m 10216.3,16950.4 c 0,2032.3 1423.8,2297.3 2773.6,1976.5 371,-88.2 743.4,-256.7 1109.7,-266.8 548.3,-15.2 981.4,322.1 1412,603.8 811,530.4 1773.9,904.6 2818.9,755 1044.9,-149.6 2168,-930.5 2559.9,-2022.9 301.7,-840.8 134.4,-1705.8 -183.9,-2416.3 -623.7,-1392 -1801.6,-2386.1 -3179.9,-2916.1 -1234.8,-474.8 -3203,-359.4 -4590.3,371.5 -1667.9,878.8 -2720,1883.1 -2720,3915.3"
             style="fill:#faf2e9;fill-opacity:1;fill-rule:nonzero;stroke:none"
             id="path42" />
          <path
             d="M -2460.16,760.801 C -2325.41,2139.5 -1036.28,3058.1 313.508,2737.3 c 370.926,-88.1 743.342,-256.7 1109.662,-266.8 548.34,-15.1 981.4,322.1 1412,603.8 810.97,530.5 1773.94,904.7 2818.89,755.1 C 6699.01,3679.8 7822.05,2898.8 8214,1806.4 8515.67,965.602 8348.35,100.602 8030.05,-609.801 7406.36,-2001.9 6228.51,-2996 4850.17,-3526 3615.39,-4000.8 2041.34,-4068.7 810.16,-3097.5 -321.156,-2205.1 -1924.17,-1185.2 -2233.48,195.602 l -226.68,565.199"
             style="fill:#faf2e9;fill-opacity:1;fill-rule:nonzero;stroke:none"
             id="path44" />
          <path
             d="m 15708,15125.1 v 0 c 0,45.3 36.8,82.1 82.1,82.1 v 0 c 45.3,0 82,-36.8 82,-82.1 v 0 c 0,-45.3 -36.7,-82 -82,-82 v 0 c -45.3,0 -82.1,36.7 -82.1,82"
             style="fill:#f1bdc4;fill-opacity:1;fill-rule:nonzero;stroke:none"
             id="path46" />
          <path
             d="m 15366.1,15125.1 v 0 c 0,45.3 36.7,82.1 82,82.1 v 0 c 45.4,0 82.1,-36.8 82.1,-82.1 v 0 c 0,-45.3 -36.7,-82 -82.1,-82 v 0 c -45.3,0 -82,36.7 -82,82"
             style="fill:#f1bdc4;fill-opacity:1;fill-rule:nonzero;stroke:none"
             id="path48" />
          <path
             d="m 15024.2,15125.1 v 0 c 0,45.3 36.7,82.1 82,82.1 v 0 c 45.3,0 82.1,-36.8 82.1,-82.1 v 0 c 0,-45.3 -36.8,-82 -82.1,-82 v 0 c -45.3,0 -82,36.7 -82,82"
             style="fill:#f1bdc4;fill-opacity:1;fill-rule:nonzero;stroke:none"
             id="path50" />
          <path
             d="m 14682.2,15125.1 v 0 c 0,45.3 36.8,82.1 82.1,82.1 v 0 c 45.3,0 82,-36.8 82,-82.1 v 0 c 0,-45.3 -36.7,-82 -82,-82 v 0 c -45.3,0 -82.1,36.7 -82.1,82"
             style="fill:#f1bdc4;fill-opacity:1;fill-rule:nonzero;stroke:none"
             id="path52" />
          <path
             d="m 14354.3,15125.1 v 0 c 0,45.3 36.8,82.1 82.1,82.1 v 0 c 45.3,0 82.1,-36.8 82.1,-82.1 v 0 c 0,-45.3 -36.8,-82 -82.1,-82 v 0 c -45.3,0 -82.1,36.7 -82.1,82"
             style="fill:#f1bdc4;fill-opacity:1;fill-rule:nonzero;stroke:none"
             id="path54" />
          <path
             d="m 15708,14721.4 v 0 c 0,45.3 36.8,82 82.1,82 v 0 c 45.3,0 82,-36.7 82,-82 v 0 c 0,-45.4 -36.7,-82.1 -82,-82.1 v 0 c -45.3,0 -82.1,36.7 -82.1,82.1"
             style="fill:#f1bdc4;fill-opacity:1;fill-rule:nonzero;stroke:none"
             id="path56" />
          <path
             d="m 15366.1,14721.4 v 0 c 0,45.3 36.7,82 82,82 v 0 c 45.4,0 82.1,-36.7 82.1,-82 v 0 c 0,-45.4 -36.7,-82.1 -82.1,-82.1 v 0 c -45.3,0 -82,36.7 -82,82.1"
             style="fill:#f1bdc4;fill-opacity:1;fill-rule:nonzero;stroke:none"
             id="path58" />
          <path
             d="m 15024.2,14721.4 v 0 c 0,45.3 36.7,82 82,82 v 0 c 45.3,0 82.1,-36.7 82.1,-82 v 0 c 0,-45.4 -36.8,-82.1 -82.1,-82.1 v 0 c -45.3,0 -82,36.7 -82,82.1"
             style="fill:#f1bdc4;fill-opacity:1;fill-rule:nonzero;stroke:none"
             id="path60" />
          <path
             d="m 14682.2,14721.4 v 0 c 0,45.3 36.8,82 82.1,82 v 0 c 45.3,0 82,-36.7 82,-82 v 0 c 0,-45.4 -36.7,-82.1 -82,-82.1 v 0 c -45.3,0 -82.1,36.7 -82.1,82.1"
             style="fill:#bbe2e8;fill-opacity:1;fill-rule:nonzero;stroke:none"
             id="path62" />
          <path
             d="m 14354.3,14721.4 v 0 c 0,45.3 36.8,82 82.1,82 v 0 c 45.3,0 82.1,-36.7 82.1,-82 v 0 c 0,-45.4 -36.8,-82.1 -82.1,-82.1 v 0 c -45.3,0 -82.1,36.7 -82.1,82.1"
             style="fill:#f1bdc4;fill-opacity:1;fill-rule:nonzero;stroke:none"
             id="path64" />
          <path
             d="m 15708,14317.6 v 0 c 0,45.3 36.8,82.1 82.1,82.1 v 0 c 45.3,0 82,-36.8 82,-82.1 v 0 c 0,-45.3 -36.7,-82 -82,-82 v 0 c -45.3,0 -82.1,36.7 -82.1,82"
             style="fill:#f1bdc4;fill-opacity:1;fill-rule:nonzero;stroke:none"
             id="path66" />
          <path
             d="m 15366.1,14317.6 v 0 c 0,45.3 36.7,82.1 82,82.1 v 0 c 45.4,0 82.1,-36.8 82.1,-82.1 v 0 c 0,-45.3 -36.7,-82 -82.1,-82 v 0 c -45.3,0 -82,36.7 -82,82"
             style="fill:#f1bdc4;fill-opacity:1;fill-rule:nonzero;stroke:none"
             id="path68" />
          <path
             d="m 15024.2,14317.6 v 0 c 0,45.3 36.7,82.1 82,82.1 v 0 c 45.3,0 82.1,-36.8 82.1,-82.1 v 0 c 0,-45.3 -36.8,-82 -82.1,-82 v 0 c -45.3,0 -82,36.7 -82,82"
             style="fill:#f1bdc4;fill-opacity:1;fill-rule:nonzero;stroke:none"
             id="path70" />
          <path
             d="m 14682.2,14317.6 v 0 c 0,45.3 36.8,82.1 82.1,82.1 v 0 c 45.3,0 82,-36.8 82,-82.1 v 0 c 0,-45.3 -36.7,-82 -82,-82 v 0 c -45.3,0 -82.1,36.7 -82.1,82"
             style="fill:#f1bdc4;fill-opacity:1;fill-rule:nonzero;stroke:none"
             id="path72" />
          <path
             d="m 14354.3,14317.6 v 0 c 0,45.3 36.8,82.1 82.1,82.1 v 0 c 45.3,0 82.1,-36.8 82.1,-82.1 v 0 c 0,-45.3 -36.8,-82 -82.1,-82 v 0 c -45.3,0 -82.1,36.7 -82.1,82"
             style="fill:#f1bdc4;fill-opacity:1;fill-rule:nonzero;stroke:none"
             id="path74" />
          <path
             d="m 14027.2,15125.1 v 0 c 0,45.3 36.7,82.1 82,82.1 v 0 c 45.3,0 82.1,-36.8 82.1,-82.1 v 0 c 0,-45.3 -36.8,-82 -82.1,-82 v 0 c -45.3,0 -82,36.7 -82,82"
             style="fill:#f1bdc4;fill-opacity:1;fill-rule:nonzero;stroke:none"
             id="path76" />
          <path
             d="m 14027.2,14721.4 v 0 c 0,45.3 36.7,82 82,82 v 0 c 45.3,0 82.1,-36.7 82.1,-82 v 0 c 0,-45.4 -36.8,-82.1 -82.1,-82.1 v 0 c -45.3,0 -82,36.7 -82,82.1"
             style="fill:#f1bdc4;fill-opacity:1;fill-rule:nonzero;stroke:none"
             id="path78" />
          <path
             d="m 14027.2,14317.6 v 0 c 0,45.3 36.7,82.1 82,82.1 v 0 c 45.3,0 82.1,-36.8 82.1,-82.1 v 0 c 0,-45.3 -36.8,-82 -82.1,-82 v 0 c -45.3,0 -82,36.7 -82,82"
             style="fill:#f1bdc4;fill-opacity:1;fill-rule:nonzero;stroke:none"
             id="path80" />
          <path
             d="m 13700,15125.1 v 0 c 0,45.3 36.7,82.1 82,82.1 v 0 c 45.4,0 82.1,-36.8 82.1,-82.1 v 0 c 0,-45.3 -36.7,-82 -82.1,-82 v 0 c -45.3,0 -82,36.7 -82,82"
             style="fill:#f1bdc4;fill-opacity:1;fill-rule:nonzero;stroke:none"
             id="path82" />
          <path
             d="m 13700,14721.4 v 0 c 0,45.3 36.7,82 82,82 v 0 c 45.4,0 82.1,-36.7 82.1,-82 v 0 c 0,-45.4 -36.7,-82.1 -82.1,-82.1 v 0 c -45.3,0 -82,36.7 -82,82.1"
             style="fill:#f1bdc4;fill-opacity:1;fill-rule:nonzero;stroke:none"
             id="path84" />
          <path
             d="m 13700,14317.6 v 0 c 0,45.3 36.7,82.1 82,82.1 v 0 c 45.4,0 82.1,-36.8 82.1,-82.1 v 0 c 0,-45.3 -36.7,-82 -82.1,-82 v 0 c -45.3,0 -82,36.7 -82,82"
             style="fill:#bbe2e8;fill-opacity:1;fill-rule:nonzero;stroke:none"
             id="path86" />
          <path
             d="m 13372.8,15125.1 v 0 c 0,45.3 36.7,82.1 82.1,82.1 v 0 c 45.3,0 82,-36.8 82,-82.1 v 0 c 0,-45.3 -36.7,-82 -82,-82 v 0 c -45.4,0 -82.1,36.7 -82.1,82"
             style="fill:#f1bdc4;fill-opacity:1;fill-rule:nonzero;stroke:none"
             id="path88" />
          <path
             d="m 13372.8,14721.4 v 0 c 0,45.3 36.7,82 82.1,82 v 0 c 45.3,0 82,-36.7 82,-82 v 0 c 0,-45.4 -36.7,-82.1 -82,-82.1 v 0 c -45.4,0 -82.1,36.7 -82.1,82.1"
             style="fill:#f1bdc4;fill-opacity:1;fill-rule:nonzero;stroke:none"
             id="path90" />
          <path
             d="m 13372.8,14317.6 v 0 c 0,45.3 36.7,82.1 82.1,82.1 v 0 c 45.3,0 82,-36.8 82,-82.1 v 0 c 0,-45.3 -36.7,-82 -82,-82 v 0 c -45.4,0 -82.1,36.7 -82.1,82"
             style="fill:#f1bdc4;fill-opacity:1;fill-rule:nonzero;stroke:none"
             id="path92" />
          <path
             d="m 13045.6,15125.1 v 0 c 0,45.3 36.8,82.1 82.1,82.1 v 0 c 45.3,0 82,-36.8 82,-82.1 v 0 c 0,-45.3 -36.7,-82 -82,-82 v 0 c -45.3,0 -82.1,36.7 -82.1,82"
             style="fill:#bbe2e8;fill-opacity:1;fill-rule:nonzero;stroke:none"
             id="path94" />
          <path
             d="m 13045.6,14721.4 v 0 c 0,45.3 36.8,82 82.1,82 v 0 c 45.3,0 82,-36.7 82,-82 v 0 c 0,-45.4 -36.7,-82.1 -82,-82.1 v 0 c -45.3,0 -82.1,36.7 -82.1,82.1"
             style="fill:#f1bdc4;fill-opacity:1;fill-rule:nonzero;stroke:none"
             id="path96" />
          <path
             d="m 13045.6,14317.6 v 0 c 0,45.3 36.8,82.1 82.1,82.1 v 0 c 45.3,0 82,-36.8 82,-82.1 v 0 c 0,-45.3 -36.7,-82 -82,-82 v 0 c -45.3,0 -82.1,36.7 -82.1,82"
             style="fill:#f1bdc4;fill-opacity:1;fill-rule:nonzero;stroke:none"
             id="path98" />
        </g>
      </g>
      <g
         id="g100">
        <g
           id="g102"
           clip-path="url(#clipPath106)">
          <g
             id="g108"
             clip-path="url(#clipPath112)">
            <path
               d="m 13551.1,617.199 -37.2,37.199 9751.5,9751.502 37.1,-37.2 -9751.4,-9751.501"
               style="fill:#bbe2e8;fill-opacity:1;fill-rule:nonzero;stroke:none"
               id="path114" />
            <path
               d="m 13830.2,338.102 -37.2,37.097 9751.5,9751.501 37.2,-37.1 -9751.5,-9751.498"
               style="fill:#bbe2e8;fill-opacity:1;fill-rule:nonzero;stroke:none"
               id="path116" />
            <path
               d="m 14109.3,59 -37.2,37.1016 9751.5,9751.5084 37.2,-37.17 L 14109.3,59"
               style="fill:#bbe2e8;fill-opacity:1;fill-rule:nonzero;stroke:none"
               id="path118" />
            <path
               d="m 14388.4,-220.199 -37.1,37.199 9751.5,9751.49 37.1,-37.17 -9751.5,-9751.519"
               style="fill:#bbe2e8;fill-opacity:1;fill-rule:nonzero;stroke:none"
               id="path120" />
            <path
               d="m 14667.6,-499.301 -37.2,37.203 9751.5,9751.458 37.2,-37.17 -9751.5,-9751.491"
               style="fill:#bbe2e8;fill-opacity:1;fill-rule:nonzero;stroke:none"
               id="path122" />
            <path
               d="m 14946.7,-778.398 -37.2,37.097 9751.5,9751.531 37.2,-37.16 -9751.5,-9751.468"
               style="fill:#bbe2e8;fill-opacity:1;fill-rule:nonzero;stroke:none"
               id="path124" />
            <path
               d="m 15225.8,-1057.5 -37.2,37.1 9751.5,9751.51 37.2,-37.17 -9751.5,-9751.44"
               style="fill:#bbe2e8;fill-opacity:1;fill-rule:nonzero;stroke:none"
               id="path126" />
            <path
               d="m 15504.9,-1336.7 -37.1,37.2 9751.5,9751.48 37.1,-37.16 -9751.5,-9751.52"
               style="fill:#bbe2e8;fill-opacity:1;fill-rule:nonzero;stroke:none"
               id="path128" />
            <path
               d="m 15784.1,-1615.8 -37.2,37.2 9751.5,9751.46 37.1,-37.17 -9751.4,-9751.49"
               style="fill:#bbe2e8;fill-opacity:1;fill-rule:nonzero;stroke:none"
               id="path130" />
            <path
               d="m 16063.2,-1894.9 -37.2,37.1 9751.5,9751.53 37.2,-37.17 -9751.5,-9751.46"
               style="fill:#bbe2e8;fill-opacity:1;fill-rule:nonzero;stroke:none"
               id="path132" />
            <path
               d="m 16342.3,-2174.1 -37.2,37.2 9751.5,9751.51 37.2,-37.17 -9751.5,-9751.54"
               style="fill:#bbe2e8;fill-opacity:1;fill-rule:nonzero;stroke:none"
               id="path134" />
            <path
               d="m 16621.4,-2453.2 -37.1,37.2 9751.5,9751.48 37.1,-37.16 -9751.5,-9751.52"
               style="fill:#bbe2e8;fill-opacity:1;fill-rule:nonzero;stroke:none"
               id="path136" />
            <path
               d="m 16900.6,-2732.3 -37.2,37.2 9751.5,9751.46 37.2,-37.17 -9751.5,-9751.49"
               style="fill:#bbe2e8;fill-opacity:1;fill-rule:nonzero;stroke:none"
               id="path138" />
            <path
               d="m 17179.7,-3011.4 -37.2,37.1 9751.5,9751.54 37.2,-37.17 -9751.5,-9751.47"
               style="fill:#bbe2e8;fill-opacity:1;fill-rule:nonzero;stroke:none"
               id="path140" />
            <path
               d="m 17458.8,-3290.6 -37.2,37.2 9751.5,9751.51 37.2,-37.17 -9751.5,-9751.54"
               style="fill:#bbe2e8;fill-opacity:1;fill-rule:nonzero;stroke:none"
               id="path142" />
            <path
               d="m 17737.9,-3569.7 -37.1,37.2 9751.5,9751.48 37.1,-37.16 -9751.5,-9751.52"
               style="fill:#bbe2e8;fill-opacity:1;fill-rule:nonzero;stroke:none"
               id="path144" />
            <path
               d="m 18017.1,-3848.8 -37.2,37.2 9751.5,9751.5 37.2,-37.2 -9751.5,-9751.5"
               style="fill:#bbe2e8;fill-opacity:1;fill-rule:nonzero;stroke:none"
               id="path146" />
            <path
               d="m 18296.2,-4127.9 -37.2,37.1 9751.5,9751.5 37.2,-37.1 -9751.5,-9751.5"
               style="fill:#bbe2e8;fill-opacity:1;fill-rule:nonzero;stroke:none"
               id="path148" />
            <path
               d="m 18575.3,-4407.1 -37.2,37.2 9751.5,9751.5 37.2,-37.2 -9751.5,-9751.5"
               style="fill:#bbe2e8;fill-opacity:1;fill-rule:nonzero;stroke:none"
               id="path150" />
            <path
               d="m 18854.4,-4686.2 -37.1,37.2 9751.5,9751.5 37.1,-37.2 -9751.5,-9751.5"
               style="fill:#bbe2e8;fill-opacity:1;fill-rule:nonzero;stroke:none"
               id="path152" />
            <path
               d="m 19133.6,-4965.3 -37.2,37.2 9751.5,9751.5 37.1,-37.2 -9751.4,-9751.5"
               style="fill:#bbe2e8;fill-opacity:1;fill-rule:nonzero;stroke:none"
               id="path154" />
            <path
               d="m 19412.7,-5244.4 -37.2,37.1 9751.5,9751.5 37.2,-37.1 -9751.5,-9751.5"
               style="fill:#bbe2e8;fill-opacity:1;fill-rule:nonzero;stroke:none"
               id="path156" />
            <path
               d="m 19691.8,-5523.6 -37.2,37.2 9751.5,9751.5 37.2,-37.2 -9751.5,-9751.5"
               style="fill:#bbe2e8;fill-opacity:1;fill-rule:nonzero;stroke:none"
               id="path158" />
            <path
               d="m 19970.9,-5802.7 -37.1,37.2 9751.5,9751.5 37.1,-37.2 -9751.5,-9751.5"
               style="fill:#bbe2e8;fill-opacity:1;fill-rule:nonzero;stroke:none"
               id="path160" />
            <path
               d="m 20250.1,-6081.8 -37.2,37.2 9751.5,9751.5 37.2,-37.2 -9751.5,-9751.5"
               style="fill:#bbe2e8;fill-opacity:1;fill-rule:nonzero;stroke:none"
               id="path162" />
            <path
               d="m 20529.2,-6360.9 -37.2,37.1 9751.5,9751.5 37.2,-37.1 -9751.5,-9751.5"
               style="fill:#bbe2e8;fill-opacity:1;fill-rule:nonzero;stroke:none"
               id="path164" />
            <path
               d="m 20808.3,-6640.1 -37.2,37.2 9751.5,9751.5 37.2,-37.2 -9751.5,-9751.5"
               style="fill:#bbe2e8;fill-opacity:1;fill-rule:nonzero;stroke:none"
               id="path166" />
            <path
               d="m 21087.4,-6919.2 -37.1,37.2 9751.5,9751.5 37.1,-37.2 -9751.5,-9751.5"
               style="fill:#bbe2e8;fill-opacity:1;fill-rule:nonzero;stroke:none"
               id="path168" />
            <path
               d="m 21366.6,-7198.3 -37.2,37.2 9751.5,9751.5 37.2,-37.2 -9751.5,-9751.5"
               style="fill:#bbe2e8;fill-opacity:1;fill-rule:nonzero;stroke:none"
               id="path170" />
            <path
               d="m 21645.7,-7477.4 -37.2,37.1 9751.5,9751.5 37.2,-37.1 -9751.5,-9751.5"
               style="fill:#bbe2e8;fill-opacity:1;fill-rule:nonzero;stroke:none"
               id="path172" />
            <path
               d="m 21924.8,-7756.6 -37.2,37.2 9751.5,9751.5 37.2,-37.2 -9751.5,-9751.5"
               style="fill:#bbe2e8;fill-opacity:1;fill-rule:nonzero;stroke:none"
               id="path174" />
            <path
               d="m 22203.9,-8035.7 -37.1,37.2 9751.5,9751.5 37.1,-37.2 -9751.5,-9751.5"
               style="fill:#bbe2e8;fill-opacity:1;fill-rule:nonzero;stroke:none"
               id="path176" />
            <path
               d="m 22483.1,-8314.8 -37.2,37.2 9751.5,9751.5 37.2,-37.2 -9751.5,-9751.5"
               style="fill:#bbe2e8;fill-opacity:1;fill-rule:nonzero;stroke:none"
               id="path178" />
            <path
               d="m 22762.2,-8593.9 -37.2,37.1 9751.5,9751.5 37.2,-37.1 -9751.5,-9751.5"
               style="fill:#bbe2e8;fill-opacity:1;fill-rule:nonzero;stroke:none"
               id="path180" />
            <path
               d="m 23041.3,-8873.1 -37.1,37.2 9751.4,9751.502 37.2,-37.204 -9751.5,-9751.498"
               style="fill:#bbe2e8;fill-opacity:1;fill-rule:nonzero;stroke:none"
               id="path182" />
            <path
               d="m 23320.4,-9152.2 -37.1,37.2 9751.5,9751.5 37.1,-37.199 -9751.5,-9751.501"
               style="fill:#bbe2e8;fill-opacity:1;fill-rule:nonzero;stroke:none"
               id="path184" />
            <path
               d="m 23599.6,-9431.3 -37.2,37.2 9751.5,9751.502 37.2,-37.203 -9751.5,-9751.499"
               style="fill:#bbe2e8;fill-opacity:1;fill-rule:nonzero;stroke:none"
               id="path186" />
            <path
               d="m 23878.7,-9710.4 -37.2,37.1 L 33593,78.1992 33630.2,41.1016 23878.7,-9710.4"
               style="fill:#bbe2e8;fill-opacity:1;fill-rule:nonzero;stroke:none"
               id="path188" />
          </g>
        </g>
      </g>
      <g
         id="g190">
        <g
           id="g192"
           clip-path="url(#clipPath196)">
          <path
             d="m 22106.9,5738.8 c 0,-146 -118.5,-264.4 -264.5,-264.4 -146.1,0 -264.5,118.4 -264.5,264.4 0,146.1 118.4,264.54 264.5,264.54 146,0 264.5,-118.44 264.5,-264.54"
             style="fill:#bbe2e8;fill-opacity:1;fill-rule:nonzero;stroke:none"
             id="path198" />
          <path
             d="m 14143,12632.5 c 0,-146.1 -118.4,-264.5 -264.5,-264.5 -146.1,0 -264.5,118.4 -264.5,264.5 0,146.1 118.4,264.5 264.5,264.5 146.1,0 264.5,-118.4 264.5,-264.5"
             style="fill:#bbe2e8;fill-opacity:1;fill-rule:nonzero;stroke:none"
             id="path200" />
          <path
             d="m 5674.08,5424.4 c -204.57,0 -370.99,-166.5 -370.99,-371 0,-204.6 166.42,-371 370.99,-371 204.56,0 370.99,166.4 370.99,371 0,204.5 -166.43,371 -370.99,371 z m 0,-842 c -259.71,0 -470.99,211.3 -470.99,471 0,259.7 211.28,471 470.99,471 259.7,0 470.99,-211.3 470.99,-471 0,-259.7 -211.29,-471 -470.99,-471"
             style="fill:#bbe2e8;fill-opacity:1;fill-rule:nonzero;stroke:none"
             id="path202" />
          <path
             d="m 15731.3,4102.1 c -132.1,0 -239.5,-107.5 -239.5,-239.5 0,-132.1 107.4,-239.5 239.5,-239.5 132,0 239.4,107.4 239.4,239.5 0,132 -107.4,239.5 -239.4,239.5 z m 0,-529 c -159.7,0 -289.5,129.8 -289.5,289.5 0,159.6 129.8,289.5 289.5,289.5 159.6,0 289.4,-129.9 289.4,-289.5 0,-159.7 -129.8,-289.5 -289.4,-289.5"
             style="fill:#bbe2e8;fill-opacity:1;fill-rule:nonzero;stroke:none"
             id="path204" />
          <path
             d="m 20415.5,11290.8 c -12.8,0 -25.6,4.9 -35.3,14.6 l -531.9,531.9 c -19.5,19.5 -19.5,51.2 0,70.7 19.5,19.5 51.2,19.5 70.7,0 l 531.9,-531.8 c 19.5,-19.6 19.5,-51.2 0,-70.8 -9.8,-9.7 -22.6,-14.6 -35.4,-14.6"
             style="fill:#cfceec;fill-opacity:1;fill-rule:nonzero;stroke:none"
             id="path206" />
          <path
             d="m 19883.7,11290.8 c -12.8,0 -25.6,4.9 -35.4,14.6 -19.5,19.6 -19.5,51.2 0,70.8 l 531.9,531.8 c 19.5,19.5 51.1,19.5 70.7,0 19.5,-19.5 19.5,-51.2 0,-70.7 l -531.9,-531.9 c -9.7,-9.7 -22.5,-14.6 -35.3,-14.6"
             style="fill:#cfceec;fill-opacity:1;fill-rule:nonzero;stroke:none"
             id="path208" />
          <path
             d="m 3544.78,4240.9 c -12.8,0 -25.59,4.9 -35.36,14.7 l -682.93,682.9 c -19.53,19.5 -19.53,51.2 0,70.7 19.53,19.5 51.18,19.5 70.71,0 l 682.93,-682.9 c 19.53,-19.6 19.53,-51.2 0,-70.7 -9.76,-9.8 -22.56,-14.7 -35.35,-14.7"
             style="fill:#cfceec;fill-opacity:1;fill-rule:nonzero;stroke:none"
             id="path210" />
          <path
             d="m 2861.85,4240.9 c -12.8,0 -25.59,4.9 -35.36,14.7 -19.53,19.5 -19.53,51.1 0,70.7 l 682.93,682.9 c 19.53,19.5 51.18,19.5 70.71,0 19.53,-19.5 19.53,-51.2 0,-70.7 L 2897.2,4255.6 c -9.76,-9.8 -22.56,-14.7 -35.35,-14.7"
             style="fill:#cfceec;fill-opacity:1;fill-rule:nonzero;stroke:none"
             id="path212" />
          <path
             d="M 11525.7,-803.398 10391.8,-1492.9 9257.87,-803.398 v 1233.5 L 10391.8,1119.7 11525.7,430.102 v -1233.5"
             style="fill:#bbe2e8;fill-opacity:1;fill-rule:nonzero;stroke:none"
             id="path214" />
          <path
             d="M -771.629,5830.3 1.83594,5359.9 775.305,5830.3 v 835.88 L 1.83594,7136.54 -771.629,6666.18 Z M 1.83594,5008.8 -1071.63,5661.6 V 6834.85 L 1.83594,7487.66 1075.3,6834.85 V 5661.6 L 1.83594,5008.8"
             style="fill:#f1bdc4;fill-opacity:1;fill-rule:nonzero;stroke:none"
             id="path216" />
          <path
             d="m 5501.75,13338.8 1473.64,-896.1 1473.63,896.1 v 1602.1 l -1473.63,896.2 -1473.64,-896.2 z m 1473.64,-954.7 -1523.64,926.6 V 14969 l 1523.64,926.6 1523.63,-926.6 v -1658.3 l -1523.63,-926.6"
             style="fill:#bbe2e8;fill-opacity:1;fill-rule:nonzero;stroke:none"
             id="path218" />
          <path
             d="m 5699.08,13446.1 1276.31,-776.1 1276.31,776.1 v 1387.5 l -1276.31,776.2 -1276.31,-776.2 z m 1276.31,-834.6 -1326.31,806.5 v 1443.7 l 1326.31,806.6 1326.31,-806.6 V 13418 l -1326.31,-806.5"
             style="fill:#bbe2e8;fill-opacity:1;fill-rule:nonzero;stroke:none"
             id="path220" />
          <path
             d="m 5699.08,13446.1 1276.31,-776.1 1276.31,776.1 v 1387.5 l -1276.31,776.2 -1276.31,-776.2 z m 1276.31,-834.6 -1326.31,806.5 v 1443.7 l 1326.31,806.6 1326.31,-806.6 V 13418 l -1326.31,-806.5"
             style="fill:#bbe2e8;fill-opacity:1;fill-rule:nonzero;stroke:none"
             id="path222" />
          <path
             d="m 5883.69,13546.5 1091.7,-663.8 1091.7,663.8 v 1186.7 l -1091.7,663.9 -1091.7,-663.9 z m 1091.7,-722.4 -1141.7,694.3 v 1242.9 l 1141.7,694.3 1141.7,-694.3 v -1242.9 l -1141.7,-694.3"
             style="fill:#bbe2e8;fill-opacity:1;fill-rule:nonzero;stroke:none"
             id="path224" />
          <path
             d="m 6075.23,13650.7 900.16,-547.4 900.16,547.4 v 978.3 l -900.16,547.4 -900.16,-547.4 z m 900.16,-605.9 -950.16,577.8 v 1034.5 l 950.16,577.8 950.16,-577.8 v -1034.5 l -950.16,-577.8"
             style="fill:#bbe2e8;fill-opacity:1;fill-rule:nonzero;stroke:none"
             id="path226" />
          <path
             d="m 6261.51,13752 713.88,-434.1 713.87,434.1 v 775.7 l -713.87,434.1 -713.88,-434.1 z m 713.88,-492.6 -763.88,464.5 v 831.9 l 763.88,464.5 763.87,-464.5 v -831.9 l -763.87,-464.5"
             style="fill:#bbe2e8;fill-opacity:1;fill-rule:nonzero;stroke:none"
             id="path228" />
          <path
             d="m -869.656,3663.3 c 894.8435,919.5 2443.206,912.7 3331.426,-14.5 244.09,-254.8 443.4,-568.1 728.44,-764.5 426.67,-294 963.18,-275.8 1466,-296.1 946.95,-38.2 1925.28,-267.1 2669.33,-914.1 744.05,-647 1189.29,-1787.202 876.15,-2773.4 -241.01,-759 -868.18,-1293.1 -1526.87,-1638.4 C 5384.16,-3414.3 3881,-3519.2 2483.9,-3187.5 1232.32,-2890.5 -56.1016,-2126.3 -478.477,-793.699 -866.582,430.801 -1556.27,1990.4 -1012.7,3140.8 l 143.044,522.5"
             style="fill:#f1bdc4;fill-opacity:1;fill-rule:nonzero;stroke:none"
             id="path230" />
          <path
             d="m 20486.2,14547.6 c 747.1,-223.5 922.9,-1173.9 1332,-1837.7 528.9,-858.2 1588.8,-1299.5 2595.9,-1256.2 1007.2,43.2 1957.8,512.2 2749.1,1136.7 955.6,754.2 1767.2,1994.3 1341.9,3134.9 -249.2,668.2 -881.5,1135.1 -1557.8,1361.4 -676.2,226.3 -1401.5,247 -2114.3,265.5 -2481.1,64.5 -4962.1,135.5 -7443.3,193.5 -939.9,22 -1216,-128.9 -833,-1042.4 264,-629.6 612.1,-1804.7 1205,-2190.7 901,-586.7 1794.1,519.3 2724.5,235"
             style="fill:#bbe2e8;fill-opacity:1;fill-rule:nonzero;stroke:none"
             id="path232" />
          <path
             d="m 20094.7,15385.2 c 543.3,-162.5 792.6,-706.2 1033.6,-1232 96.3,-210 195.8,-427.1 312.6,-616.5 494.2,-801.9 1504.3,-1290.3 2573.5,-1244.4 1028.7,44.2 2024.8,456.1 2732.9,1129.9 548.9,522.3 1777.7,1870.7 1335.6,3108.4 -214,599.1 -776.1,1089.7 -1542.1,1346.1 -678.4,227.1 -1404.7,245.9 -2107.1,264.2 -826.7,21.5 -1667.3,44.1 -2480.1,65.9 -1626.7,43.7 -3308.7,88.9 -4963.1,127.6 -464.8,10.9 -799.1,-18.1 -919.7,-194.9 -98.7,-144.7 -64.6,-395.4 110.4,-812.8 49.1,-117.2 101.5,-254.1 156.9,-399.1 237.4,-620.5 562.5,-1470.4 1038.6,-1780.4 482.2,-313.9 955.4,-135 1456.3,54.5 409.1,154.7 832.2,314.7 1261.7,183.5 z m 3782.9,-3145.8 c -467.9,0 -931.8,101.2 -1349.9,295.3 -483.9,224.7 -874.5,562.2 -1129.4,975.7 -118.4,192.1 -218.5,410.6 -315.4,622 -247.3,539.4 -480.9,1048.9 -1002.5,1204.9 l -0.1,0.1 c -413.4,126.2 -828.3,-30.7 -1229.6,-182.5 -297.3,-112.4 -600.8,-227.2 -905.7,-227.2 -198.3,0 -397.2,48.5 -595.5,177.6 -489.8,318.9 -804.9,1142.6 -1058.1,1804.4 -55.3,144.6 -107.5,281.2 -156.3,397.7 -182.3,434.7 -214.9,700 -105.6,860.3 133.7,196 467.3,228.2 962.2,216.7 1654.5,-38.7 3336.5,-83.9 4963.2,-127.6 812.9,-21.8 1653.4,-44.4 2480.1,-65.9 706,-18.4 1436.1,-37.4 2121.6,-266.8 357.5,-119.6 686.2,-298.8 950.6,-518.2 298.1,-247.4 507.6,-536.2 622.8,-858.5 176.2,-493.3 111.2,-1053.6 -193.3,-1665.5 -310.1,-623.1 -799.2,-1157.4 -1154.9,-1495.9 -716.8,-682.1 -1724.7,-1098.9 -2765.2,-1143.6 -46.3,-2 -92.7,-3 -139,-3"
             style="fill:#ffffff;fill-opacity:1;fill-rule:nonzero;stroke:none"
             id="path234" />
          <path
             d="m 21418.8,9005.28 c -219.6,0 -398.3,-178.68 -398.3,-398.32 0,-219.64 178.7,-398.32 398.3,-398.32 219.6,0 398.3,178.68 398.3,398.32 0,219.64 -178.7,398.32 -398.3,398.32 z m 0,-896.64 c -274.8,0 -498.3,223.54 -498.3,498.32 0,274.77 223.5,498.32 498.3,498.32 274.8,0 498.3,-223.55 498.3,-498.32 0,-274.78 -223.5,-498.32 -498.3,-498.32"
             style="fill:#f1bdc4;fill-opacity:1;fill-rule:nonzero;stroke:none"
             id="path236" />
          <path
             d="m 16622.5,2503.8 c -4.5,0 -9.1,0.6 -13.6,1.9 -153.7,43.4 -312.5,72.6 -472.3,86.9 -27.5,2.5 -47.8,26.8 -45.3,54.3 2.5,27.5 26.8,47.6 54.3,45.3 165.8,-14.9 330.8,-45.2 490.4,-90.2 26.6,-7.5 42.1,-35.1 34.6,-61.7 -6.2,-22.1 -26.3,-36.5 -48.1,-36.5 z m -1451.9,-2.4 c -21.8,0 -41.8,14.3 -48,36.2 -7.6,26.6 7.7,54.3 34.3,61.8 159.5,45.6 324.4,76.5 490.1,92 27.4,2.5 51.9,-17.7 54.5,-45.2 2.5,-27.5 -17.7,-51.8 -45.2,-54.4 -159.6,-14.9 -318.4,-44.6 -471.9,-88.5 -4.6,-1.3 -9.3,-1.9 -13.8,-1.9 z m 2325.2,-430.9 c -10.5,0 -21.1,3.3 -30.1,10 -128,96.5 -265.5,181.4 -408.6,252.5 -24.8,12.3 -34.9,42.3 -22.6,67 12.3,24.7 42.3,34.8 67,22.6 148.7,-73.9 291.5,-162.1 424.4,-262.2 22,-16.6 26.4,-47.9 9.8,-70 -9.8,-13.1 -24.8,-19.9 -39.9,-19.9 z m -3196.8,-5.4 c -15.1,0 -30,6.8 -39.9,19.8 -16.7,22 -12.4,53.3 9.6,70 132.6,100.6 275,189.2 423.4,263.5 24.7,12.4 54.8,2.4 67.1,-22.3 12.4,-24.7 2.4,-54.7 -22.3,-67.1 -142.9,-71.5 -280.1,-156.9 -407.7,-253.8 -9.1,-6.8 -19.7,-10.1 -30.2,-10.1 z m 3855.2,-713.7 c -16.7,0 -33,8.4 -42.5,23.6 -84.5,135.7 -182.3,264.4 -290.4,382.5 -18.7,20.4 -17.3,52 3.1,70.7 20.3,18.6 51.9,17.2 70.6,-3.2 112.3,-122.6 213.8,-256.2 301.6,-397.1 14.6,-23.5 7.5,-54.3 -16,-68.9 -8.2,-5.1 -17.3,-7.6 -26.4,-7.6 z m -4511.3,-7.6 c -9,0 -18,2.4 -26.2,7.5 -23.5,14.5 -30.8,45.3 -16.2,68.8 87.3,141.2 188.3,275.2 300.2,398.2 18.7,20.5 50.3,21.9 70.7,3.4 20.4,-18.6 21.9,-50.2 3.3,-70.7 -107.8,-118.5 -205.1,-247.5 -289.2,-383.5 -9.5,-15.3 -25.8,-23.7 -42.6,-23.7 z m 4865.3,-900.402 c -23.5,0 -44.5,16.704 -49,40.704 -29.6,157.3 -74.1,312.597 -132.2,461.597 -10.1,25.801 2.7,54.801 28.4,64.801 25.8,10 54.7,-2.7 64.7,-28.398 60.4,-154.801 106.6,-316.102 137.3,-479.5 5.1,-27.102 -12.7,-53.301 -39.9,-58.403 -3.1,-0.597 -6.2,-0.801 -9.3,-0.801 z m -5216.2,-9 c -3,0 -6.1,0.301 -9.1,0.801 -27.2,5 -45.2,31.102 -40.1,58.301 30.1,163.5 75.8,325 135.6,479.898 10,25.801 38.9,38.602 64.7,28.702 25.7,-9.998 38.5,-38.901 28.6,-64.698 -57.6,-149.203 -101.6,-304.601 -130.6,-462.101 -4.4,-24.102 -25.5,-40.903 -49.1,-40.903 z m 5217.5,-971.796 c -3.1,0 -6.1,0.3 -9.2,0.898 -27.2,5 -45.1,31.102 -40,58.203 29,156.695 43.8,317.598 43.8,478.297 v 6.10156 c 0,27.59764 22.4,50.00004 50,50.00004 27.6,0 50,-22.4024 50,-50.00004 V 0.199219 c 0,-167.000219 -15.3,-334.097219 -45.5,-496.699219 -4.5,-24.102 -25.5,-40.898 -49.1,-40.898 z m -5216.5,-3 c -23.6,0 -44.6,16.8 -49.1,40.8 -30.4,162.598 -45.9,329.7 -46.1,496.49644 0,27.60156 22.3,49.99996 49.9,50.10156 0.1,0 0.1,0 0.1,0 27.6,0 50,-22.3984 50,-50 0.2,-160.699 15.1,-321.598 44.4,-478.199 5,-27.199 -12.8,-53.301 -40,-58.399 -3.1,-0.5 -6.2,-0.8 -9.2,-0.8 z m 4864.3,-906.002 c -9,0 -18.1,2.4 -26.3,7.5 -23.5,14.6 -30.7,45.4 -16.2,68.9 84.5,136.2 156.6,280.8 214.3,429.801 10,25.801 39,38.601 64.7,28.601 25.8,-10 38.6,-39.004 28.6,-64.703 -60,-154.799 -134.9,-304.999 -222.6,-446.399 -9.5,-15.3 -25.8,-23.7 -42.5,-23.7 z m -4511.1,-2.5 c -16.8,0 -33.1,8.4 -42.6,23.7 -87.8,141.2 -162.8,291.3 -223,446.001 -10,25.699 2.8,54.699 28.5,64.699 25.7,10 54.7,-2.699 64.7,-28.5 57.9,-148.9 130.2,-293.4 214.8,-429.5 14.5,-23.4 7.4,-54.2 -16.1,-68.8 -8.2,-5.1 -17.3,-7.6 -26.3,-7.6 z m 3854.4,-718 c -15.2,0 -30.1,6.8 -40,19.8 -16.6,22 -12.3,53.4 9.7,70.1 127.6,96.5 247,205.5 354.9,323.8 18.6,20.4 50.2,21.8 70.6,3.2 20.4,-18.6 21.9,-50.2 3.3,-70.6 -112,-122.8 -236,-235.9 -368.4,-336.2 -9,-6.8 -19.6,-10.1 -30.1,-10.1 z m -3197,-1.8 c -10.5,0 -21,3.3 -30.1,10.1 -132.5,100.1 -256.6,213.1 -368.7,335.8 -18.6,20.4 -17.2,52.1 3.2,70.7 20.4,18.6 52,17.2 70.6,-3.2 108,-118.2 227.5,-227 355.2,-323.5 22,-16.6 26.4,-47.9 9.8,-70 -9.8,-13 -24.8,-19.9 -40,-19.9 z m 2324.7,-433.5 c -21.8,0 -41.8,14.3 -48,36.3 -7.6,26.6 7.8,54.2 34.4,61.8 153.8,43.7 304.4,102.2 447.6,173.7 24.7,12.4 54.8,2.4 67.1,-22.4 12.3,-24.7 2.3,-54.7 -22.4,-67 -148.8,-74.3 -305.2,-135 -465,-180.5 -4.5,-1.3 -9.1,-1.9 -13.7,-1.9 z m -1451.8,-0.8 c -4.5,0 -9.1,0.6 -13.6,1.9 -159.8,45.2 -316.4,105.8 -465.3,179.9 -24.7,12.3 -34.8,42.4 -22.5,67.1 12.3,24.7 42.3,34.7 67.1,22.4 143.3,-71.4 294.1,-129.6 447.9,-173.2 26.6,-7.5 42,-35.2 34.5,-61.8 -6.2,-22 -26.3,-36.3 -48.1,-36.3 z m 724.4,-100.1 c -82.5,0 -165.8,3.7 -247.7,11.2 -27.5,2.5 -47.7,26.8 -45.2,54.3 2.5,27.5 26.9,47.6 54.3,45.2 158.6,-14.4 321.7,-14.3 480.3,0.3 27.5,2.6 51.9,-17.7 54.4,-45.2 2.5,-27.5 -17.7,-51.8 -45.2,-54.4 -82.9,-7.6 -167.3,-11.4 -250.9,-11.4"
             style="fill:#f1bdc4;fill-opacity:1;fill-rule:nonzero;stroke:none"
             id="path238" />
          <path
             d="m 15283.2,1673.8 c -20.6,0 -39.8,12.7 -47.1,33.1 -9.3,26 4.2,54.7 30.2,64 161,57.7 329.6,93 501,105.1 27.7,2.1 51.4,-18.8 53.4,-46.4 1.9,-27.5 -18.8,-51.4 -46.4,-53.4 -162.3,-11.4 -321.9,-44.8 -474.3,-99.5 -5.5,-2 -11.2,-2.9 -16.8,-2.9 z m 1454.9,-95.4 c -7.7,0 -15.5,1.8 -22.8,5.6 -144.4,74.4 -298.3,128.5 -457.2,160.9 -27.1,5.5 -44.6,31.9 -39,58.9 5.5,27.1 31.9,44.5 58.9,39 168,-34.1 330.5,-91.3 483.1,-169.9 24.5,-12.7 34.2,-42.8 21.5,-67.4 -8.8,-17.2 -26.3,-27.1 -44.5,-27.1 z m -2259.9,-476.3 c -11.1,0 -22.2,3.6 -31.5,11.2 -21.5,17.3 -24.7,48.8 -7.4,70.3 108,133.2 233.6,251 373.3,350.3 22.5,16 53.7,10.7 69.7,-11.8 16,-22.5 10.7,-53.7 -11.8,-69.7 -132.3,-94 -251.2,-205.7 -353.5,-331.8 -9.9,-12.2 -24.3,-18.5 -38.8,-18.5 z m 2983.9,-195.401 c -16.8,0 -33.2,8.403 -42.7,23.801 -84.8,138.2 -188.2,264.3 -307.3,374.9 -20.3,18.8 -21.5,50.4 -2.7,70.6 18.8,20.3 50.5,21.5 70.7,2.7 125.8,-116.8 235,-250 324.6,-395.899 14.4,-23.5 7,-54.301 -16.5,-68.699 -8.1,-5 -17.2,-7.403 -26.1,-7.403 z M 14086.7,195.602 c -2.2,0 -4.5,0.199 -6.7,0.5 -27.4,3.597 -46.6,28.8 -42.9,56.199 22.8,170.101 68.8,336.097 136.8,493.398 11,25.403 40.5,37 65.8,26.102 25.3,-11 37,-40.399 26,-65.699 C 14201.4,557.199 14157.8,400 14136.2,239 c -3.4,-25.098 -24.9,-43.398 -49.5,-43.398 z m 3577.6,-739.301 c -4.5,0 -9,0.597 -13.5,1.898 -26.6,7.403 -42.1,35 -34.7,61.602 43.5,155.5 65.5,317.097 65.5,480.199 0,1.10156 0,2.19922 0.1,3.30078 -0.1,1.19922 -0.1,2.30078 -0.1,3.39844 -0.6,163.10178 -23.3,324.60178 -67.3,479.99978 -7.6,26.602 7.9,54.301 34.4,61.801 26.6,7.5 54.2,-7.898 61.8,-34.5 46.5,-164.098 70.4,-334.699 71.1,-506.89844 0,-1.20312 0,-2.30078 -0.1,-3.5 0.1,-1.19922 0.1,-2.40234 0.1,-3.60156 0,-172.199 -23.3,-342.801 -69.2,-507.098 -6.1,-22.101 -26.2,-36.601 -48.1,-36.601 z m -3441.7,-238.602 c -19.2,0 -37.6,11.203 -45.8,30 -68.6,157 -115.3,322.801 -138.8,492.801 -3.7,27.301 15.4,52.602 42.7,56.301 27.4,3.898 52.6,-15.301 56.4,-42.699 22.2,-160.801 66.4,-317.801 131.3,-466.403 11.1,-25.297 -0.5,-54.797 -25.8,-65.801 -6.5,-2.898 -13.3,-4.199 -20,-4.199 z m 2928.5,-605.099 c -13.4,0 -26.7,5.4 -36.5,15.9 -18.9,20.2 -17.9,51.8 2.3,70.7 118.7,111 221.7,237.5 306,375.999 14.4,23.602 45.2,31.102 68.8,16.699 23.5,-14.398 31,-45.097 16.7,-68.699 -89.1,-146.299 -197.8,-279.899 -323.2,-397.099 -9.6,-9 -21.9,-13.5 -34.1,-13.5 z m -2304,-159.7 c -9.9,0 -20,2.9 -28.7,9.1 -140.1,98.7 -266.1,216.1 -374.6,348.9 -17.5,21.4 -14.3,52.9 7.1,70.4 21.4,17.5 52.9,14.3 70.3,-7.1 102.8,-125.8 222.2,-237 354.8,-330.5 22.6,-15.9 27.9,-47.1 12,-69.7 -9.7,-13.8 -25.2,-21.1 -40.9,-21.1 z m 1427.8,-295.3 c -23.2,0 -44,16.2 -48.9,39.8 -5.6,27 11.7,53.5 38.8,59.1 158.8,33 312.4,87.7 456.5,162.6 24.5,12.7 54.7,3.2 67.4,-21.3 12.7,-24.5 3.2,-54.7 -21.3,-67.4 -152.2,-79.2 -314.5,-137 -482.3,-171.8 -3.4,-0.7 -6.8,-1 -10.2,-1 z m -497,-34.2 c -1.1,0 -2.2,0 -3.4,0.1 -171.5,11.4 -340.2,46.1 -501.4,103.2 -26,9.2 -39.6,37.8 -30.4,63.8 9.2,26 37.8,39.7 63.8,30.5 152.6,-54.1 312.3,-86.9 474.7,-97.7 27.5,-1.8 48.4,-25.7 46.5,-53.2 -1.7,-26.4 -23.7,-46.7 -49.8,-46.7"
             style="fill:#f1bdc4;fill-opacity:1;fill-rule:nonzero;stroke:none"
             id="path240" />
          <path
             d="m 15404.5,910 c -16.5,0 -32.3,8.902 -40.5,24.5 -11.6,22.398 -2.9,49.898 19.4,61.5 141.7,73.8 294.8,115.7 454.9,124.5 25,1.4 46.6,-17.9 48,-43 1.4,-25.2 -17.9,-46.7 -43,-48.1 -147.1,-8 -287.6,-46.498 -417.8,-114.298 -6.7,-3.5 -13.9,-5.102 -21,-5.102 z m 1261.9,-198.5 c -11.8,0 -23.5,4.5 -32.4,13.602 -103.7,104.8 -225.7,184.597 -362.5,237.398 -23.5,9 -35.2,35.402 -26.2,58.9 9.1,23.5 35.5,35.2 59,26.2 149,-57.401 281.7,-144.401 394.5,-258.401 17.7,-17.898 17.6,-46.797 -0.4,-64.5 -8.8,-8.801 -20.4,-13.199 -32,-13.199 z M 14856.2,215.602 c -3.6,0 -7.3,0.398 -11,1.398 -24.5,6 -39.3,30.801 -33.2,55.199 38.6,155 108.6,297.403 208.1,423.203 15.6,19.797 44.3,23.2 64.1,7.5 19.7,-15.601 23.1,-44.203 7.5,-64 -91.5,-115.601 -155.8,-246.402 -191.3,-388.703 -5.1,-20.801 -23.7,-34.597 -44.2,-34.597 z M 16882.7,-488 c -6.2,0 -12.6,1.301 -18.7,4 -22.9,10.402 -33.1,37.402 -22.8,60.301 60.2,133.5 90.8,276.101 90.8,423.699 0,123.902 -21.8,245.102 -64.6,360.102 -8.8,23.597 3.2,49.898 26.8,58.597 23.6,8.801 49.8,-3.199 58.6,-26.699 46.7,-125.301 70.4,-257.199 70.4,-392 0,-160.699 -33.3,-315.801 -98.9,-461.199 -7.6,-16.801 -24.2,-26.801 -41.6,-26.801 z m -1869.4,-167 c -14.5,0 -28.8,6.898 -37.6,19.801 -90.9,132.097 -151.2,278.801 -179.4,436.199 -4.4,24.801 12.1,48.5 36.9,52.902 24.7,4.496 48.4,-12.101 52.9,-36.8 25.8,-144.602 81.3,-279.301 164.7,-400.7 14.3,-20.703 9,-49.101 -11.7,-63.402 -7.9,-5.398 -16.9,-8 -25.8,-8 z m 1206.7,-419.2 c -19.5,0 -37.5,12.6 -43.6,32.1 -7.4,24.1 6,49.6 30.1,57.1 140,43.402 267,114.902 377.5,212.602 18.8,16.699 47.6,15 64.3,-3.903 16.7,-18.898 14.9,-47.699 -3.9,-64.398 C 16524.2,-947 16386,-1024.9 16233.5,-1072.1 c -4.5,-1.4 -9.1,-2.1 -13.5,-2.1 z m -450.6,-40.1 c -1.8,0 -3.7,0.1 -5.6,0.4 -158.8,19.3 -308.8,71.4 -445.6,154.599 -21.5,13.102 -28.3,41.199 -15.2,62.703 13.1,21.5 41.1,28.301 62.6,15.2 125.7,-76.403 263.4,-124.202 409.3,-142.002 25,-3.1 42.7,-25.8 39.7,-50.8 -2.8,-23.1 -22.5,-40.1 -45.2,-40.1"
             style="fill:#f1bdc4;fill-opacity:1;fill-rule:nonzero;stroke:none"
             id="path242" />
          <path
             d="m 4304.11,11432.3 c -109.61,0 -198.78,-89.2 -198.78,-198.8 0,-109.6 89.17,-198.7 198.78,-198.7 109.61,0 198.79,89.1 198.79,198.7 0,109.6 -89.18,198.8 -198.79,198.8 z m 0,-462.2 c -145.25,0 -263.43,118.2 -263.43,263.4 0,145.3 118.18,263.5 263.43,263.5 145.26,0 263.43,-118.2 263.43,-263.5 0,-145.2 -118.17,-263.4 -263.43,-263.4"
             style="fill:#f1bdc4;fill-opacity:1;fill-rule:nonzero;stroke:none"
             id="path244" />
          <path
             d="m 11929.4,15905.9 c 0,-796.6 -645.8,-1442.4 -1442.4,-1442.4 -796.61,0 -1442.4,645.8 -1442.4,1442.4 0,796.6 645.79,1442.4 1442.4,1442.4 796.6,0 1442.4,-645.8 1442.4,-1442.4"
             style="fill:#f1bdc4;fill-opacity:1;fill-rule:nonzero;stroke:none"
             id="path246" />
          <path
             d="m 10907.8,-1403.4 c -141.9,0 -287.6,11.3 -436.9,33.9 -435.3,66.1 -889.21,229.9 -1312.75,473.703 C 8561.42,-552.199 8038.19,-85.6992 7532.18,365.602 7359.27,519.801 7180.47,679.199 7001.53,831.199 6393.1,1348.1 5570.65,1959.2 4603.26,2097.7 c -513.87,73.6 -1052.8,11.1 -1573.98,-49.4 -735.91,-85.3 -1496.87,-173.6 -2177.862,130.1 -583.43,260.1 -999.496,751.4 -1444.789,1319.5 l -5.695,7.2 c -401.614,512.3 -816.904,1042.1 -1395.684,1329.7 -548.37,272.5 -1352.4,274.9 -1762.35,-257.6 l -39.62,30.6 c 189.73,246.4 489.27,404.7 843.46,445.8 324.85,37.7 682.31,-25.7 980.77,-174 588.9,-292.7 1007.728,-827 1412.767,-1343.6 l 5.7,-7.3 C -112.918,2966 298.828,2479.5 871.777,2224 1540.25,1926 2260.74,2009.5 3023.52,2098 c 524.34,60.8 1066.52,123.7 1586.83,49.2 980.05,-140.4 1810,-756.7 2423.55,-1277.899 179.4,-152.403 358.42,-312 531.56,-466.399 C 8069.57,-46.6016 8590.85,-511.5 9183.11,-852.5 c 914.79,-526.7 1870.69,-644.8 2622.39,-324.2 l 19.6,-46 c -282.1,-120.3 -589.4,-180.7 -917.3,-180.7"
             style="fill:#ffffff;fill-opacity:1;fill-rule:nonzero;stroke:none"
             id="path248" />
          <path
             d="m -722.211,10922.4 c -228.695,0 -445.239,20.7 -651.369,62 -16.18,3.2 -26.66,18.9 -23.42,35.1 3.23,16.2 18.93,26.7 35.14,23.4 576.481,-115.4 1237.657,-66.8 2021.325,148.5 574.615,158 1117.595,383.8 1613.845,671.2 988.44,572.6 1804.29,1431.9 2359.36,2485 311.75,591.5 547.65,1259.4 764.88,2165.5 3.85,16.1 19.96,25.9 36,22.1 16.04,-3.9 25.92,-20 22.07,-36 C 5237.18,15588 4999.66,14915.9 4685.49,14319.8 4125.18,13256.7 3301.42,12389.2 2303.24,11811 c -500.68,-290.1 -1048.4,-517.9 -1627.955,-677.1 -513.867,-141.3 -976.25,-211.5 -1397.496,-211.5"
             style="fill:#cfceec;fill-opacity:1;fill-rule:nonzero;stroke:none"
             id="path250" />
          <path
             d="m -942.934,11141.9 c -189.646,0 -371.456,13.3 -546.566,39.8 -16.3,2.4 -27.53,17.7 -25.06,34 2.47,16.3 17.64,27.5 33.98,25 574.443,-86.8 1224.057,-29.3 1985.986,176 580.504,156.3 1129.384,376 1631.354,652.7 1002.93,553 1838.49,1383.7 2416.34,2402.3 384.57,677.9 619.11,1404.8 815.27,2089.4 4.54,15.8 21.06,25 36.92,20.5 15.86,-4.6 25.02,-21.1 20.48,-37 -197.18,-688.1 -433.07,-1419 -820.73,-2102.3 C 4021.73,13414.1 3178.19,12575.5 2165.6,12017.1 1659.42,11738 1106.07,11516.6 520.934,11359 -17.7383,11213.9 -501.434,11141.9 -942.934,11141.9"
             style="fill:#cfceec;fill-opacity:1;fill-rule:nonzero;stroke:none"
             id="path252" />
          <path
             d="m -1193.77,11363 c -141.74,0 -279.57,6.8 -414.16,20.4 -16.41,1.6 -28.37,16.3 -26.72,32.7 1.65,16.4 16.27,28.4 32.7,26.7 584.75,-58.9 1234.802,11.6 1987.302,215.6 585.304,158.6 1136.748,374.3 1638.998,641.1 992.68,527.3 1831.54,1314.7 2425.91,2276.9 406.05,657.4 658.04,1370.8 881.33,2045.3 5.18,15.7 22.07,24.2 37.73,19 15.66,-5.2 24.14,-22.1 18.96,-37.8 -224.41,-677.8 -477.77,-1395 -887.21,-2057.9 -599.94,-971.2 -1446.68,-1765.9 -2448.7,-2298.2 -506.19,-268.9 -1061.8,-486.3 -1651.401,-646.1 -586.985,-159 -1112.867,-237.7 -1594.739,-237.7"
             style="fill:#cfceec;fill-opacity:1;fill-rule:nonzero;stroke:none"
             id="path254" />
          <path
             d="m -1466.19,11581 c -88.2,0 -175.34,2.2 -261.55,6.5 -16.47,0.8 -29.15,14.9 -28.32,31.3 0.82,16.5 14.93,29.2 31.31,28.3 1104.797,-55.6 2383.719,251.2 3601.32,863.9 1005.99,506.1 1864.12,1261.7 2481.61,2185 408.14,610.3 676.74,1286.5 938.32,1983.5 5.8,15.4 23.04,23.2 38.45,17.4 15.44,-5.8 23.25,-23 17.46,-38.4 -262.86,-700.4 -532.9,-1380.1 -944.59,-1995.7 C 3784.61,13731 2918.59,12968.4 1903.4,12457.6 771.578,11888.2 -413.902,11581 -1466.19,11581"
             style="fill:#cfceec;fill-opacity:1;fill-rule:nonzero;stroke:none"
             id="path256" />
          <path
             d="m -1846.49,11792.1 c -0.47,0 -0.84,0 -1.31,0 -16.49,0 -29.86,13.4 -29.86,29.9 0.01,16.5 13.38,29.8 29.86,29.8 0.01,0 0.01,0 0.01,0 0.44,0 0.9,0 1.34,0 1445.399,0 2745.723,474.8 3582.15,873.1 1012.53,482.2 1884.36,1198.9 2521.24,2072.7 424.47,582.3 718.43,1248 1006.77,1935.8 6.37,15.2 23.88,22.4 39.08,16 15.21,-6.4 22.37,-23.9 15.99,-39.1 C 5029.02,16019.1 4733.46,15350 4305.19,14762.4 3662.48,13880.6 2782.85,13157.4 1761.38,12671 1186.03,12397 593.836,12182.4 1.25391,12033.1 -633.34,11873.2 -1255.06,11792.1 -1846.49,11792.1"
             style="fill:#cfceec;fill-opacity:1;fill-rule:nonzero;stroke:none"
             id="path258" />
          <path
             d="m -1968.65,11995.6 c -15.8,0 -28.99,12.3 -29.79,28.3 -0.84,16.5 11.84,30.5 28.31,31.3 1181.165,59.8 2413.943,365.2 3565.06,883.4 1027.87,462.6 1920.16,1150.1 2580.39,1988.1 436.01,553.3 747.84,1196.3 1055.02,1861.6 6.92,14.9 24.64,21.5 39.63,14.5 14.97,-6.9 21.5,-24.6 14.59,-39.6 -308.74,-668.6 -622.3,-1315 -1062.34,-1873.5 -666.15,-845.5 -1566.17,-1539 -2602.78,-2005.6 -1157.823,-521.1 -2398.034,-828.4 -3586.55,-888.5 -0.52,0 -1.03,0 -1.54,0"
             style="fill:#cfceec;fill-opacity:1;fill-rule:nonzero;stroke:none"
             id="path260" />
          <path
             d="m -2088.71,12197.7 c -15.13,0 -28.1,11.5 -29.66,26.8 -1.68,16.4 10.27,31.1 26.67,32.8 1682.848,171.5 3204.99,628.5 4401.87,1321.8 635.15,367.8 1176.95,797.2 1610.34,1276.1 543.9,601 935.04,1310.4 1276.69,1987.5 7.43,14.7 25.37,20.6 40.11,13.2 14.72,-7.4 20.63,-25.4 13.2,-40.1 -343.54,-680.8 -737.07,-1394.4 -1285.72,-2000.7 -437.56,-483.5 -984.18,-916.7 -1624.69,-1287.7 -1204.15,-697.5 -2734.545,-1157.2 -4425.74,-1329.5 -1.03,-0.2 -2.05,-0.2 -3.07,-0.2"
             style="fill:#cfceec;fill-opacity:1;fill-rule:nonzero;stroke:none"
             id="path262" />
          <path
             d="m -2209.06,12400.3 c -14.48,0 -27.2,10.6 -29.47,25.4 -2.5,16.3 8.69,31.5 24.99,34 1280.563,196.4 2937.388,523 4395.12,1311.3 647.86,350.3 1200.42,756.2 1642.34,1206.3 580.63,591.4 1003.66,1301.7 1340.9,1918.6 7.91,14.4 26.05,19.7 40.51,11.8 14.47,-7.9 19.79,-26 11.88,-40.5 -339.2,-620.4 -764.93,-1335.1 -1350.69,-1931.8 -446.08,-454.3 -1003.43,-863.8 -1656.53,-1217 -1465.814,-792.6 -3129.15,-1120.6 -4414.48,-1317.7 -1.53,-0.3 -3.06,-0.4 -4.57,-0.4"
             style="fill:#cfceec;fill-opacity:1;fill-rule:nonzero;stroke:none"
             id="path264" />
          <path
             d="m -2329.21,12602.7 c -13.88,0 -26.31,9.7 -29.22,23.8 -3.32,16.2 7.07,31.9 23.23,35.3 l 94.9,19.5 c 1449.976,298.3 2949.316,606.8 4291.95,1283 666.75,335.8 1210.52,704.3 1662.38,1126.6 633.75,592.3 1089.75,1306.1 1416.2,1861.7 8.36,14.2 26.65,19 40.87,10.6 14.22,-8.3 18.97,-26.6 10.62,-40.8 -328.5,-559.2 -787.55,-1277.5 -1426.91,-1875.1 -456.08,-426.2 -1004.4,-797.9 -1676.3,-1136.4 -1349.705,-679.7 -2852.99,-989 -4306.78,-1288.1 l -94.89,-19.5 c -2.03,-0.4 -4.06,-0.6 -6.05,-0.6"
             style="fill:#cfceec;fill-opacity:1;fill-rule:nonzero;stroke:none"
             id="path266" />
          <path
             d="m -2448.85,12804.1 c -13.28,0 -25.41,9 -28.88,22.4 -4.13,16 5.47,32.3 21.43,36.4 347.18,89.7 702.33,174.3 1045.78,256 1116.266,265.7 2270.54,540.5 3333.9,1036.9 679.66,317.2 1233.75,663.3 1693.93,1057.8 524.06,449.3 994.45,1018.9 1480.34,1792.4 8.77,13.9 27.18,18.2 41.16,9.4 13.96,-8.8 18.17,-27.2 9.4,-41.2 -489.17,-778.7 -963.28,-1352.6 -1492.04,-1805.9 -464.34,-398.2 -1022.88,-747.1 -1707.54,-1066.7 -1068.864,-498.9 -2226.146,-774.4 -3345.32,-1040.8 -343.18,-81.7 -698.04,-166.1 -1044.67,-255.7 -2.5,-0.7 -5.02,-1 -7.49,-1"
             style="fill:#cfceec;fill-opacity:1;fill-rule:nonzero;stroke:none"
             id="path268" />
          <path
             d="m -2568.28,13005.2 c -12.73,0 -24.53,8.2 -28.51,21.1 -4.88,15.7 3.91,32.4 19.67,37.3 543.02,168.7 1103.06,307.9 1644.659,442.5 908.8008,225.9 1848.535,459.4 2729.771,838.2 689.67,296.4 1250.13,616.2 1713.37,977.8 562.26,438.8 1071.85,1005.1 1557.9,1731.3 9.18,13.7 27.71,17.4 41.42,8.3 13.7,-9.2 17.38,-27.8 8.21,-41.5 -489.64,-731.6 -1003.45,-1302.4 -1570.79,-1745.2 -467.34,-364.7 -1032.09,-687.1 -1726.54,-985.6 -885.689,-380.6 -1827.82141,-614.8 -2738.935,-841.3 -540.785,-134.4 -1099.975,-273.4 -1641.355,-441.5 -2.95,-0.9 -5.94,-1.4 -8.87,-1.4"
             style="fill:#cfceec;fill-opacity:1;fill-rule:nonzero;stroke:none"
             id="path270" />
          <path
             d="m -2687.86,13206.6 c -12.23,0 -23.7,7.6 -28.09,19.8 -5.58,15.5 2.46,32.6 17.97,38.2 575.92,207.5 1181.85,354.7 1767.828,497 205.25,49.8 417.48,101.4 624.726,154.7 746.324,191.8 1368.876,368.6 1981.346,608.1 712.93,278.7 1268.3,566.1 1747.79,904.5 603.66,426.1 1135.48,967.6 1625.86,1655.3 9.57,13.4 28.23,16.5 41.64,7 13.43,-9.6 16.55,-28.3 6.98,-41.7 -494.34,-693.3 -1030.81,-1239.3 -1640.04,-1669.4 -483.54,-341.3 -1042.95,-630.9 -1760.49,-911.4 -615.27,-240.5 -1239.793,-417.9 -1988.223,-610.3 -207.628,-53.3 -420.054,-104.9 -625.492,-154.8 -584.445,-142 -1188.785,-288.8 -1761.675,-495.2 -3.35,-1.2 -6.77,-1.8 -10.13,-1.8"
             style="fill:#cfceec;fill-opacity:1;fill-rule:nonzero;stroke:none"
             id="path272" />
          <path
             d="m -2807.95,13408.8 c -11.75,0 -22.88,7 -27.63,18.6 -6.26,15.2 1.03,32.7 16.28,38.9 634.21,260.5 1314.98,422.8 1973.343,579.7 134.098,31.9 272.762,65 408.285,98.2 715.067,175.4 1358.438,338.8 1991.022,562.2 725.94,256.4 1292.17,520.7 1781.94,831.9 637.26,404.8 1206.99,936.3 1693.38,1579.7 9.95,13.1 28.66,15.8 41.82,5.8 13.16,-9.9 15.76,-28.7 5.81,-41.8 C 4585.6,16432.9 4010.61,15896.6 3367.32,15487.9 2873.63,15174.2 2303.55,14908 1573.23,14650.1 938.078,14425.8 293.195,14262 -423.441,14086.2 c -135.719,-33.3 -274.477,-66.3 -408.668,-98.3 -656.131,-156.4 -1334.601,-318.1 -1964.511,-576.8 -3.71,-1.5 -7.55,-2.3 -11.33,-2.3"
             style="fill:#cfceec;fill-opacity:1;fill-rule:nonzero;stroke:none"
             id="path274" />
          <path
             d="m -2928.25,13611.4 c -11.29,0 -22.08,6.4 -27.13,17.4 -6.91,14.9 -0.39,32.7 14.59,39.6 677.52,313 1420.88,485.2 2139.759,651.7 76.933,17.8 153.711,35.6 230.242,53.5 55.008,12.9 110.027,25.7 165.047,38.6 605.512,141.3 1231.637,287.5 1835.102,478.6 738.06,233.7 1314.98,475.2 1815.59,760 679.53,386.6 1271.74,893.1 1760.18,1505.3 10.28,12.9 29.07,15 41.96,4.7 12.89,-10.2 15.01,-29 4.72,-41.9 -493.2,-618.2 -1091.18,-1129.6 -1777.33,-1520 -504.36,-286.9 -1084.93,-530 -1827.09,-765.1 C 841.719,14642 214.449,14495.6 -392.168,14354 c -55.004,-12.8 -110.016,-25.7 -165.016,-38.5 -76.57,-17.9 -153.39,-35.7 -230.371,-53.6 -715.935,-165.8 -1456.255,-337.3 -2128.195,-647.7 -4.05,-1.9 -8.31,-2.8 -12.5,-2.8"
             style="fill:#cfceec;fill-opacity:1;fill-rule:nonzero;stroke:none"
             id="path276" />
          <path
             d="m -3048.27,13813.5 c -10.82,0 -21.27,5.9 -26.56,16.2 -7.55,14.7 -1.79,32.7 12.87,40.2 711.04,366.1 1509.41,544.7 2281.491,717.3 l 58.028,13 c 146.644,32.8 295.839,65.5 440.128,97.1 522.227,114.4 1062.235,232.7 1585.993,380.3 751.98,211.8 1343.79,433.2 1862.47,696.7 713.66,362.5 1323.33,842.1 1812.07,1425.5 10.6,12.6 29.43,14.3 42.06,3.7 12.65,-10.6 14.31,-29.4 3.72,-42.1 -493.95,-589.5 -1109.92,-1074.2 -1830.81,-1440.3 -522.24,-265.3 -1117.5,-488.1 -1873.32,-701 -525.448,-148 -1066.335,-266.5 -1589.405,-381.1 -144.219,-31.6 -293.352,-64.3 -439.867,-97.1 l -58.036,-13 c -768.402,-171.8 -1562.972,-349.5 -2267.182,-712.1 -4.37,-2.2 -9.05,-3.3 -13.65,-3.3"
             style="fill:#cfceec;fill-opacity:1;fill-rule:nonzero;stroke:none"
             id="path278" />
          <path
             d="m -3169.07,14016.9 c -10.39,0 -20.47,5.4 -25.98,15.1 -8.16,14.3 -3.15,32.6 11.18,40.7 740.23,421.3 1619.43,609.7 2325.874,761 229.242,49.2 462.719,96.4 688.508,142.1 442.258,89.6 899.578,182.1 1345.218,292.7 761.49,189 1363.6,388.2 1894.86,626.8 754.35,338.9 1385.73,794.8 1876.6,1355 10.87,12.4 29.72,13.6 42.13,2.8 12.4,-10.9 13.65,-29.8 2.78,-42.2 -496.56,-566.7 -1134.81,-1027.6 -1897.04,-1370 -534.6,-240.2 -1139.91,-440.5 -1904.95,-630.3 -446.899,-110.9 -904.864,-203.6 -1347.751,-293.3 -225.625,-45.7 -458.929,-92.9 -687.847,-141.9 -702.432,-150.6 -1576.622,-337.9 -2308.842,-754.6 -4.66,-2.6 -9.74,-3.9 -14.74,-3.9"
             style="fill:#cfceec;fill-opacity:1;fill-rule:nonzero;stroke:none"
             id="path280" />
          <path
             d="m -3290.64,14221.6 c -9.96,0 -19.69,5 -25.35,14 -8.74,14 -4.49,32.4 9.49,41.2 697.55,436.1 1515.51,629.4 2293.53,790 312.607,64.5 631.482,123.2 939.8567,179.9 367.2153,67.5 746.9333,137.3 1118.1533,217.5 1412.19,305.1 2857.98,739.7 3866.25,1844.6 11.12,12.1 30,13 42.18,1.9 12.18,-11.1 13.04,-30 1.93,-42.2 -465.08,-509.6 -1053.38,-913.2 -1798.52,-1233.6 -726.86,-312.6 -1503.68,-500.4 -2099.23,-629.1 -372.127,-80.4 -752.302,-150.3 -1119.9625,-217.9 -308.0625,-56.6 -626.6135,-115.2 -938.5875,-179.6 -772.7,-159.5 -1584.78,-351.3 -2273.95,-782.2 -4.91,-3 -10.39,-4.5 -15.79,-4.5"
             style="fill:#cfceec;fill-opacity:1;fill-rule:nonzero;stroke:none"
             id="path282" />
          <path
             d="m -3411.98,14425.9 c -9.53,0 -18.89,4.5 -24.67,13 -9.31,13.6 -5.82,32.2 7.79,41.5 915.1,625.6 2048.18,806.3 3143.958,981 97.843,15.6 195.0739,31.1 291.4645,46.9 1007.8675,164.5 2076.9575,356.4 3093.7375,730.3 705.09,259.4 1300.42,642.2 1769.47,1138 11.33,11.9 30.23,12.5 42.21,1.1 11.98,-11.3 12.5,-30.2 1.17,-42.2 -475.44,-502.5 -1078.43,-890.4 -1792.24,-1152.9 -1021.72,-375.8 -2094,-568.3 -3104.7264,-733.3 -96.4609,-15.7 -193.7656,-31.2 -291.6796,-46.8 -1089.274,-173.7 -2215.634,-353.4 -3119.664,-971.4 -5.15,-3.5 -11.02,-5.2 -16.82,-5.2"
             style="fill:#cfceec;fill-opacity:1;fill-rule:nonzero;stroke:none"
             id="path284" />
          <path
             d="m -3531.93,14627.9 c -9.11,0 -18.11,4.1 -23.97,12 -9.85,13.2 -7.12,31.9 6.1,41.8 417.69,311.2 930.28,545.6 1567.07,716.5 560.28,150.4 1141.277,233.8 1703.136,314.4 49.149,7.1 98.114,14.1 146.864,21.2 978.668,141.4 2087.91,301.6 3130.17,636.1 739.32,237.3 1353.16,602.3 1824.46,1084.9 11.52,11.8 30.43,12 42.22,0.5 11.79,-11.5 12.02,-30.4 0.5,-42.2 -478.17,-489.7 -1100.24,-859.8 -1848.94,-1100.1 -1047.01,-335.9 -2158.883,-496.6 -3139.868,-638.3 -48.769,-7.1 -97.753,-14.1 -146.921,-21.2 -1141.461,-163.8 -2321.791,-333.2 -3243.011,-1019.7 -5.35,-4 -11.61,-5.9 -17.81,-5.9"
             style="fill:#cfceec;fill-opacity:1;fill-rule:nonzero;stroke:none"
             id="path286" />
          <path
             d="m -3649.36,14825.6 c -8.7,0 -17.31,3.8 -23.21,11.1 -10.39,12.8 -8.43,31.6 4.38,42 950.21,770.7 2249.9,936.6 3396.592,1082.9 l 5.559,0.7 c 68.547,8.7 137.09,17.4 205.6288,26.1 968.9532,123 1970.8902,250.1 2933.1402,515.9 791.95,218.7 1411.55,559 1894.2,1040.5 11.67,11.6 30.59,11.6 42.22,-0.1 11.65,-11.6 11.62,-30.5 -0.05,-42.2 -490.13,-488.9 -1118.33,-834.3 -1920.48,-1055.8 -966.37,-266.9 -1970.475,-394.3 -2941.5145,-517.5 -68.5195,-8.7 -137.0545,-17.4 -205.5855,-26.1 l -5.555,-0.8 c -1138.795,-145.3 -2429.525,-310 -3366.545,-1070 -5.53,-4.5 -12.18,-6.7 -18.78,-6.7"
             style="fill:#cfceec;fill-opacity:1;fill-rule:nonzero;stroke:none"
             id="path288" />
          <path
             d="m 12658.3,2680.8 c -85.2,0 -130.1,43 -166.1,77.6 -32.5,31.2 -58.1,55.9 -112,55.9 -53.7,0 -79.4,-24.7 -111.9,-55.9 -36,-34.6 -80.8,-77.6 -166,-77.6 -85.2,0 -130.1,43 -166.1,77.6 -32.5,31.2 -58.1,55.9 -111.9,55.9 -53.8,0 -79.5,-24.7 -112,-55.9 -36,-34.6 -80.8,-77.6 -166,-77.6 -85.2,0 -130,43 -166,77.6 -32.5,31.2 -58.2,55.9 -112,55.9 -53.8,0 -79.4,-24.7 -111.9,-55.9 -36,-34.6 -80.8,-77.6 -166,-77.6 -85.2,0 -130,43 -166,77.6 -32.5,31.2 -58.2,55.9 -112,55.9 -53.7,0 -79.4,-24.7 -111.9,-55.9 -36,-34.6 -80.8,-77.6 -166,-77.6 -85.2,0 -130,43 -166,77.6 -32.5,31.2 -58.2,55.9 -112,55.9 -53.8,0 -79.4,-24.7 -111.9,-55.9 -36,-34.6 -80.86,-77.6 -166.05,-77.6 -85.19,0 -130,43 -166.01,77.6 -32.49,31.2 -58.15,55.9 -111.94,55.9 -21.55,0 -39.03,17.4 -39.03,39 0,21.5 17.48,39 39.03,39 85.19,0 130,-43 166.01,-77.6 32.49,-31.2 58.16,-55.8 111.94,-55.8 53.78,0 79.45,24.6 111.94,55.8 36.01,34.6 80.81,77.6 166.01,77.6 85.2,0 130,-43 166,-77.6 32.5,-31.2 58.2,-55.8 112,-55.8 53.8,0 79.4,24.6 111.9,55.8 36,34.6 80.9,77.6 166,77.6 85.2,0 130,-43 166,-77.6 32.5,-31.2 58.2,-55.8 112,-55.8 53.8,0 79.4,24.6 111.9,55.8 36,34.6 80.8,77.6 166,77.6 85.2,0 130,-43 166,-77.6 32.5,-31.2 58.2,-55.8 112,-55.8 53.8,0 79.5,24.6 112,55.8 36,34.6 80.8,77.6 166,77.6 85.2,0 130,-43 166,-77.6 32.5,-31.2 58.2,-55.8 112,-55.8 53.8,0 79.4,24.6 111.9,55.8 36,34.6 80.9,77.6 166,77.6 85.3,0 130.1,-43 166.1,-77.6 32.5,-31.2 58.2,-55.8 112,-55.8 53.8,0 79.4,24.6 112,55.8 36,34.6 80.8,77.6 166,77.6 21.5,0 39,-17.5 39,-39 0,-21.6 -17.5,-39 -39,-39 -53.8,0 -79.5,-24.7 -112,-55.9 -36,-34.6 -80.8,-77.6 -166,-77.6"
             style="fill:#f1bdc4;fill-opacity:1;fill-rule:nonzero;stroke:none"
             id="path290" />
          <path
             d="m 12658.3,2274.9 c -85.2,0 -130.1,43 -166.1,77.6 -32.5,31.2 -58.1,55.8 -112,55.8 -53.7,0 -79.4,-24.6 -111.9,-55.8 -36,-34.6 -80.8,-77.6 -166,-77.6 -85.2,0 -130.1,43 -166.1,77.6 -32.5,31.2 -58.1,55.8 -111.9,55.8 -53.8,0 -79.5,-24.6 -112,-55.8 -36,-34.6 -80.8,-77.6 -166,-77.6 -85.2,0 -130,43 -166,77.6 -32.5,31.2 -58.2,55.8 -112,55.8 -53.8,0 -79.4,-24.6 -111.9,-55.8 -36,-34.6 -80.8,-77.6 -166,-77.6 -85.2,0 -130,43 -166,77.6 -32.5,31.2 -58.2,55.8 -112,55.8 -53.7,0 -79.4,-24.6 -111.9,-55.8 -36,-34.6 -80.8,-77.6 -166,-77.6 -85.2,0 -130,43 -166,77.6 -32.5,31.2 -58.2,55.8 -112,55.8 -53.8,0 -79.4,-24.6 -111.9,-55.8 -36,-34.6 -80.86,-77.6 -166.05,-77.6 -85.19,0 -130,43 -166.01,77.6 -32.49,31.2 -58.15,55.8 -111.94,55.8 -21.55,0 -39.03,17.5 -39.03,39.1 0,21.5 17.48,39 39.03,39 85.19,0 130,-43 166.01,-77.6 32.49,-31.2 58.16,-55.9 111.94,-55.9 53.78,0 79.45,24.7 111.94,55.9 36.01,34.6 80.81,77.6 166.01,77.6 85.2,0 130,-43 166,-77.6 32.5,-31.2 58.2,-55.9 112,-55.9 53.8,0 79.4,24.7 111.9,55.9 36,34.6 80.9,77.6 166,77.6 85.2,0 130,-43 166,-77.6 32.5,-31.2 58.2,-55.9 112,-55.9 53.8,0 79.4,24.7 111.9,55.9 36,34.6 80.8,77.6 166,77.6 85.2,0 130,-43 166,-77.6 32.5,-31.2 58.2,-55.9 112,-55.9 53.8,0 79.5,24.7 112,55.9 36,34.6 80.8,77.6 166,77.6 85.2,0 130,-43 166,-77.6 32.5,-31.2 58.2,-55.9 112,-55.9 53.8,0 79.4,24.7 111.9,55.9 36,34.6 80.9,77.6 166,77.6 85.3,0 130.1,-43 166.1,-77.6 32.5,-31.2 58.2,-55.9 112,-55.9 53.8,0 79.4,24.7 112,55.9 36,34.6 80.8,77.6 166,77.6 21.5,0 39,-17.5 39,-39 0,-21.6 -17.5,-39.1 -39,-39.1 -53.8,0 -79.5,-24.6 -112,-55.8 -36,-34.6 -80.8,-77.6 -166,-77.6"
             style="fill:#f1bdc4;fill-opacity:1;fill-rule:nonzero;stroke:none"
             id="path292" />
          <path
             d="m 12658.3,1869 c -85.2,0 -130.1,43 -166.1,77.6 -32.5,31.2 -58.1,55.8 -112,55.8 -53.7,0 -79.4,-24.6 -111.9,-55.8 -36,-34.6 -80.8,-77.6 -166,-77.6 -85.2,0 -130.1,43 -166.1,77.6 -32.5,31.2 -58.1,55.8 -111.9,55.8 -53.8,0 -79.5,-24.6 -112,-55.8 -36,-34.6 -80.8,-77.6 -166,-77.6 -85.2,0 -130,43 -166,77.6 -32.5,31.2 -58.2,55.8 -112,55.8 -53.8,0 -79.4,-24.6 -111.9,-55.8 -36,-34.6 -80.8,-77.6 -166,-77.6 -85.2,0 -130,43 -166,77.6 -32.5,31.2 -58.2,55.8 -112,55.8 -53.7,0 -79.4,-24.6 -111.9,-55.8 -36,-34.6 -80.8,-77.6 -166,-77.6 -85.2,0 -130,43 -166,77.6 -32.5,31.2 -58.2,55.8 -112,55.8 -53.8,0 -79.4,-24.6 -111.9,-55.8 -36,-34.6 -80.86,-77.6 -166.05,-77.6 -85.19,0 -130,43 -166.01,77.6 -32.49,31.2 -58.15,55.8 -111.94,55.8 -21.55,0 -39.03,17.5 -39.03,39 0,21.6 17.48,39 39.03,39 85.19,0 130,-43 166.01,-77.5 32.49,-31.2 58.16,-55.9 111.94,-55.9 53.78,0 79.45,24.7 111.94,55.9 36.01,34.5 80.81,77.5 166.01,77.5 85.2,0 130,-43 166,-77.5 32.5,-31.2 58.2,-55.9 112,-55.9 53.8,0 79.4,24.7 111.9,55.9 36,34.5 80.9,77.5 166,77.5 85.2,0 130,-43 166,-77.5 32.5,-31.2 58.2,-55.9 112,-55.9 53.8,0 79.4,24.7 111.9,55.9 36,34.5 80.8,77.5 166,77.5 85.2,0 130,-43 166,-77.5 32.5,-31.2 58.2,-55.9 112,-55.9 53.8,0 79.5,24.7 112,55.9 36,34.5 80.8,77.5 166,77.5 85.2,0 130,-43 166,-77.5 32.5,-31.2 58.2,-55.9 112,-55.9 53.8,0 79.4,24.7 111.9,55.9 36,34.5 80.9,77.5 166,77.5 85.3,0 130.1,-43 166.1,-77.5 32.5,-31.2 58.2,-55.9 112,-55.9 53.8,0 79.4,24.7 112,55.9 36,34.5 80.8,77.5 166,77.5 21.5,0 39,-17.4 39,-39 0,-21.5 -17.5,-39 -39,-39 -53.8,0 -79.5,-24.6 -112,-55.8 -36,-34.6 -80.8,-77.6 -166,-77.6"
             style="fill:#f1bdc4;fill-opacity:1;fill-rule:nonzero;stroke:none"
             id="path294" />
          <path
             d="m 2629.04,8115 c -213.1,0 -386.48,-173.38 -386.48,-386.48 0,-213.11 173.38,-386.49 386.48,-386.49 213.11,0 386.49,173.38 386.49,386.49 0,213.1 -173.38,386.48 -386.49,386.48 z m 0,-860.25 c -261.23,0 -473.76,212.53 -473.76,473.77 0,261.23 212.53,473.76 473.76,473.76 261.24,0 473.77,-212.53 473.77,-473.76 0,-261.24 -212.53,-473.77 -473.77,-473.77"
             style="fill:#ffffff;fill-opacity:1;fill-rule:nonzero;stroke:none"
             id="path296" />
          <path
             d="m 2700.49,908.301 c -105.97,0 -192.18,-86.199 -192.18,-192.102 0,-106 86.21,-192.199 192.18,-192.199 105.97,0 192.18,86.199 192.18,192.199 0,105.903 -86.21,192.102 -192.18,192.102 z m 0,-427.699 c -129.9,0 -235.58,105.597 -235.58,235.597 0,129.903 105.68,235.5 235.58,235.5 129.9,0 235.58,-105.597 235.58,-235.5 0,-130 -105.68,-235.597 -235.58,-235.597"
             style="fill:#ffffff;fill-opacity:1;fill-rule:nonzero;stroke:none"
             id="path298" />
          <path
             d="m 1425.92,831.898 c -63.81,0 -115.72,-51.898 -115.72,-115.699 0,-63.898 51.91,-115.797 115.72,-115.797 63.81,0 115.73,51.899 115.73,115.797 0,63.801 -51.92,115.699 -115.73,115.699 z m 0,-274.898 c -87.74,0 -159.12,71.398 -159.12,159.199 0,87.703 71.38,159.102 159.12,159.102 87.74,0 159.12,-71.399 159.12,-159.102 C 1585.04,628.398 1513.66,557 1425.92,557"
             style="fill:#ffffff;fill-opacity:1;fill-rule:nonzero;stroke:none"
             id="path300" />
          <path
             d="m 18124,12143.6 c -181.9,0 -329.9,-148 -329.9,-329.9 0,-181.9 148,-329.9 329.9,-329.9 181.9,0 329.8,148 329.8,329.9 0,181.9 -147.9,329.9 -329.8,329.9 z m 0,-734.3 c -223,0 -404.4,181.4 -404.4,404.4 0,223 181.4,404.4 404.4,404.4 222.9,0 404.3,-181.4 404.3,-404.4 0,-223 -181.4,-404.4 -404.3,-404.4"
             style="fill:#ffffff;fill-opacity:1;fill-rule:nonzero;stroke:none"
             id="path302" />
          <path
             d="m 19897.6,5960.8 c -213,0 -361.6,-70.6 -519.9,-312.4 -214.3,-327.2 -467.6,-543.9 -752.9,-644 v 0 c -105.9,-37.2 -215.1,-58.7 -320.7,-79.4 -120.2,-23.7 -233.8,-46 -344.7,-89.6 -242,-95.1 -411.3,-293.9 -452.6,-531.9 -37.3,-214.4 31.5,-470.3 175.3,-651.9 115.6,-145.9 276.9,-253 493.2,-327.4 171.9,-59.1 348.5,-87.6 524.7,-87.6 664.4,-0.1 1324.8,404.7 1722.1,1097.8 129.4,225.8 206,436.5 234.1,644.1 34.2,252.3 -9.6,505.5 -117,677.2 -102.7,164.1 -275.1,271.2 -473.2,294 -60.7,6.9 -116.5,11.1 -168.4,11.1 z M 18700.3,3149.2 c -185.8,0 -371.9,30 -553.3,92.4 -232.6,80 -407.1,196.4 -533.3,355.8 -158.6,200.2 -234.3,483.3 -192.9,721.1 46.6,268.2 236,491.8 506.7,598.1 118.3,46.5 241,70.6 359.8,94 102.5,20.2 208.6,41 308.6,76.1 266.8,93.6 505.3,298.7 708.8,609.5 219.5,335.17 440.4,378.15 771.2,340.18 224.6,-25.76 420.4,-147.68 537.3,-334.38 117.9,-188.4 166.3,-463.3 129.5,-735.2 -29.6,-219 -109.7,-440.1 -244.9,-675.9 C 20084.5,3570 19395.3,3149.3 18700.3,3149.2"
             style="fill:#ffffff;fill-opacity:1;fill-rule:nonzero;stroke:none"
             id="path304" />
          <path
             d="m 6197.06,11688.6 c -79.53,0 -156.15,-6.4 -229.31,-24.9 -121.1,-30.5 -200.66,-83.6 -236.47,-157.7 -38.56,-79.8 -28.19,-186.7 30.83,-317.5 211.69,-469.2 841.28,-374 1102.12,-311.2 h 0.01 c 535.14,128.7 1032.11,377.5 1437.18,719.5 97.68,82.5 194.02,175 237.19,292.2 36.91,100.2 25.18,242.8 -69.25,309.7 -103.66,73.5 -259.76,28.4 -372.46,-22.3 -125.39,-56.5 -246.6,-124.5 -363.82,-190.4 -245.97,-138.1 -500.32,-280.9 -803.92,-321.8 -145.72,-19.6 -300.59,-5.9 -450.36,7.5 -97.07,8.6 -191.28,16.9 -281.74,16.9 z m 248.21,-964.1 c -293.84,0 -622.11,85.5 -774.31,422.9 -71.77,159.1 -81.77,294.4 -29.72,402.1 49.28,102 150.91,173.1 302.07,211.2 172.8,43.6 361.68,26.8 544.34,10.6 144.3,-12.9 293.5,-26.1 428.17,-8 284.65,38.3 519.58,170.3 768.3,309.9 119.12,66.9 242.3,136.1 371.74,194.3 198.55,89.4 357.11,93.7 471.3,12.8 136.49,-96.7 156.28,-287.4 105.29,-425.9 -51.19,-139 -158.35,-242.7 -266.52,-334 -416.91,-352 -928.1,-608 -1478.31,-740.4 l -11.69,48.7 11.69,-48.7 c -106.08,-25.5 -268.19,-55.5 -442.35,-55.5"
             style="fill:#ffffff;fill-opacity:1;fill-rule:nonzero;stroke:none"
             id="path306" />
          <path
             d="m 23803.1,14041.3 c -8.9,0 -17.9,3.4 -24.7,10.2 l -371.3,371.4 c -13.6,13.6 -13.6,35.7 0,49.4 13.6,13.6 35.7,13.6 49.4,0 l 371.3,-371.4 c 13.6,-13.6 13.6,-35.7 0,-49.4 -6.8,-6.8 -15.7,-10.2 -24.7,-10.2"
             style="fill:#ffffff;fill-opacity:1;fill-rule:nonzero;stroke:none"
             id="path308" />
          <path
             d="m 23431.8,14041.3 c -9,0 -17.9,3.4 -24.7,10.2 -13.6,13.7 -13.6,35.8 0,49.4 l 371.3,371.4 c 13.7,13.6 35.8,13.6 49.4,0 13.6,-13.7 13.6,-35.8 0,-49.4 l -371.3,-371.4 c -6.9,-6.8 -15.8,-10.2 -24.7,-10.2"
             style="fill:#ffffff;fill-opacity:1;fill-rule:nonzero;stroke:none"
             id="path310" />
          <path
             d="m 23869.7,15075.3 c -6.7,0 -13.3,2.6 -18.4,7.7 l -172.4,172.3 c -10.2,10.2 -10.2,26.7 0,36.9 10.2,10.2 26.7,10.2 36.9,0 l 172.4,-172.3 c 10.1,-10.2 10.1,-26.7 0,-36.9 -5.1,-5.1 -11.8,-7.7 -18.5,-7.7"
             style="fill:#ffffff;fill-opacity:1;fill-rule:nonzero;stroke:none"
             id="path312" />
          <path
             d="m 23697.4,15075.3 c -6.7,0 -13.4,2.6 -18.5,7.7 -10.2,10.2 -10.2,26.7 0,36.9 l 172.4,172.3 c 10.2,10.2 26.7,10.2 36.9,0 10.1,-10.2 10.1,-26.7 0,-36.9 l -172.4,-172.3 c -5.1,-5.1 -11.7,-7.7 -18.4,-7.7"
             style="fill:#ffffff;fill-opacity:1;fill-rule:nonzero;stroke:none"
             id="path314" />
          <path
             d="m 22684.6,14793.6 c -6.6,0 -13.3,2.6 -18.4,7.7 l -277.5,277.5 c -10.2,10.1 -10.2,26.7 0,36.8 10.2,10.2 26.7,10.2 36.9,0 l 277.5,-277.4 c 10.2,-10.2 10.2,-26.8 0,-36.9 -5.1,-5.1 -11.8,-7.7 -18.5,-7.7"
             style="fill:#ffffff;fill-opacity:1;fill-rule:nonzero;stroke:none"
             id="path316" />
          <path
             d="m 22407.1,14793.6 c -6.6,0 -13.3,2.6 -18.4,7.7 -10.2,10.1 -10.2,26.7 0,36.9 l 277.5,277.4 c 10.2,10.2 26.7,10.2 36.9,0 10.2,-10.1 10.2,-26.7 0,-36.8 l -277.5,-277.5 c -5.1,-5.1 -11.8,-7.7 -18.5,-7.7"
             style="fill:#ffffff;fill-opacity:1;fill-rule:nonzero;stroke:none"
             id="path318" />
        </g>
      </g>
    </g>
  </g>
</svg>
